<?xml version="1.0" encoding="UTF-8" standalone="no"?>
<svg
   xmlns:dc="http://purl.org/dc/elements/1.1/"
   xmlns:cc="http://creativecommons.org/ns#"
   xmlns:rdf="http://www.w3.org/1999/02/22-rdf-syntax-ns#"
   xmlns:svg="http://www.w3.org/2000/svg"
   xmlns="http://www.w3.org/2000/svg"
   xmlns:sodipodi="http://sodipodi.sourceforge.net/DTD/sodipodi-0.dtd"
   xmlns:inkscape="http://www.inkscape.org/namespaces/inkscape"
   version="1.1"
   id="Layer_1"
   width="650px"
   height="650px"
   xml:space="preserve"
   sodipodi:docname="blue logo.svg"
   inkscape:version="0.92.4 (5da689c313, 2019-01-14)"
   inkscape:export-filename="C:\Users\Mahmudul Hasan\Pictures\blue logo 400dpi.png"
   inkscape:export-xdpi="400"
   inkscape:export-ydpi="400"><metadata
   id="metadata5390"><rdf:RDF><cc:Work
       rdf:about=""><dc:format>image/svg+xml</dc:format><dc:type
         rdf:resource="http://purl.org/dc/dcmitype/StillImage" /><dc:title /></cc:Work></rdf:RDF></metadata><defs
   id="defs5388" /><sodipodi:namedview
   pagecolor="#ffffff"
   bordercolor="#666666"
   borderopacity="1"
   objecttolerance="10"
   gridtolerance="10"
   guidetolerance="10"
   inkscape:pageopacity="0"
   inkscape:pageshadow="2"
   inkscape:window-width="1366"
   inkscape:window-height="715"
   id="namedview5386"
   showgrid="false"
   inkscape:zoom="0.43703423"
   inkscape:cx="-393.24722"
   inkscape:cy="120.65835"
   inkscape:window-x="-8"
   inkscape:window-y="-8"
   inkscape:window-maximized="1"
   inkscape:current-layer="Layer_1" />
<g
   id="PathID_1"
   transform="matrix(3.4183, 0, 0, 3.4183, 323.5, 323.8)"
   opacity="1">
<path
   style="fill:#010203;fill-opacity:0"
   d="M36 -36.1Q51 -21.1 51 0Q51 21.1 36 36Q21.1 51 0 51Q-21.1 51 -36.1 36Q-51 21.1 -51 0Q-51 -21.1 -36.1 -36.1Q-21.1 -51 0 -51Q21.1 -51 36 -36.1"
   id="path4955" />
</g>
<g
   id="PathID_2"
   transform="matrix(3.4183,0,0,3.4183,323.5,323.8)"
   style="opacity:1;stroke:#008aff;stroke-width:9.95107174;stroke-miterlimit:4;stroke-dasharray:none;stroke-opacity:1">
<path
   style="fill:none;stroke:#ffff00;stroke-width:9.95107174;stroke-linecap:round;stroke-linejoin:round;stroke-miterlimit:4;stroke-dasharray:none;stroke-opacity:1"
   d="M 36,-36.05 Q 51,-21.05 51,0 51,21.1 36,36 21.1,51 0,51 -21.05,51 -36.05,36 -50.95,21.1 -50.95,0 q 0,-21.05 14.9,-36.05 15,-14.9 36.05,-14.9 21.1,0 36,14.9 z"
   id="path4958"
   inkscape:connector-curvature="0" />
</g>
<g
   id="PathID_3"
   transform="matrix(3.783,0,0,3.783,192.5,202.9)"
   style="opacity:0.05;fill:#008aff;fill-opacity:1">
<path
   style="fill:#ffff00;fill-opacity:1"
   d="m 53.55,7.75 q 0,3.1 -0.7,7.1 l -1.5,6.3 5.45,0.55 q 4.35,0.7 7.2,1.8 2.4,0.95 3.65,2.15 l 1.1,1.45 0.35,1.25 q 0.1,3.1 -4,5.9 -2.65,1.75 -6.7,3.45 l -7.7,2.55 q 1.6,3.15 2.9,6.45 1.5,3.75 2.05,7.25 0.4,3.45 -0.5,5.4 l -0.25,0.5 -0.85,1 -0.5,0.45 -0.15,0.05 -0.7,0.35 -0.55,0.2 -1.05,0.15 q -2.25,0.05 -5.35,-1.6 -2.8,-1.55 -6.15,-4.5 l -4.3,-4.2 -3.95,4.4 q -3.1,3.1 -5.8,4.9 -3.5,2.3 -5.95,1.95 -2.1,-0.35 -3.15,-2.45 1.5,0.15 2.65,-0.6 l 0.05,0.05 0.55,0.3 h 0.7 q 1.4,-0.1 3.4,-1.7 2.3,-1.8 4.75,-4.95 L 32.3,48.4 28.2,43.2 h -2.6 l -5.25,-0.35 -1.6,6 Q 18.35,50.75 18.1,53 L 17,52.85 15.95,53 q 0.3,-2.25 0.9,-4.6 l 1.3,-4.35 0.45,-1.35 -6.45,-1.05 Q 8.35,40.9 5.45,39.7 3.7,39 2.2,37.95 0.25,36.5 0,34.65 v -0.2 L 0.1,33.4 Q 0.45,31.05 4.6,28.75 7.1,27.35 10.95,26 13.8,25 17.3,24.15 15.75,20.35 14.6,16.55 13.5,12.4 13.2,9.55 13,7.35 13.25,5.75 14,1.65 17.2,1.3 21,0.9 26.8,6.2 25.9,6.75 25.4,7.65 L 22.05,5.3 Q 19.4,3.8 17.9,3.9 L 17.45,3.95 17.3,4 q -0.9,0.45 -1.1,2.15 -0.05,1.25 0.2,3 0.5,2.9 1.8,6.2 1.5,3.85 3.55,7.8 l 6.4,-1.05 2.25,-3.8 2.4,-3.7 -1.8,-1.9 1,-1.05 1.55,1.85 q 1.9,-2.75 4.6,-6.05 2.75,-3.1 4.95,-4.9 1.7,-1.3 3.15,-2 l 2,-0.55 q 2.8,-0.25 4.15,2.2 1.1,2 1.15,5.55 M 49.8,2.9 49.75,2.8 49.45,2.6 Q 48.05,1.65 44.4,4.25 42.1,5.9 39.55,8.7 q -2.6,2.85 -4.95,6.1 l 4.6,6.25 q 3.3,-0.2 7.55,-0.1 1.45,-3.45 2.5,-6.95 l 0.85,-3.15 q 1.1,-5.5 0,-7.5 L 49.8,2.9 m -2.9,30.3 1.95,3.5 8.5,-2 Q 61,33.65 63.75,32.15 67,30.35 67,28.5 L 66.65,27.55 Q 65.8,26.3 63.25,25.3 58.85,23.45 50.85,22.75 l -1.7,5.15 -2.25,5.3 m -0.55,1.15 -1.5,3 2.75,-0.45 -1.25,-2.55 m -4.15,7.7 -4.05,6.05 4.3,4.8 q 2.95,2.9 5.2,4.3 2.25,1.45 3.35,1.35 h 0.5 l 0.35,-0.2 0.25,-0.25 0.1,-0.2 q 0.65,-0.95 0.5,-3.7 -0.15,-2.85 -1.2,-6.8 -0.95,-3.4 -2.3,-6.75 l -7,1.4 M 46.1,22.5 h -5.9 l 3.45,5.35 2.45,-5.35 M 31.6,9.55 q 0,1.15 -0.85,2 -0.85,0.8 -2,0.8 -1.15,0 -2,-0.8 -0.8,-0.85 -0.8,-2 0,-1.15 0.8,-2 0.85,-0.85 2,-0.85 1.15,0 2,0.85 0.85,0.85 0.85,2 m -9.2,14.85 2.3,4.1 2.6,-4.9 -4.9,0.8 m 11.5,-8.6 -3.95,6.05 8.2,-0.75 -1.8,-2.35 -2.45,-2.95 m 2.4,6.9 -7.2,0.65 -3.45,6.5 -0.1,0.2 5.65,8.8 7.2,-0.65 4.85,-9.45 -4.05,-6.2 -2.9,0.15 M 11.4,27.25 8.3,28.5 q -1.7,0.8 -2.95,1.55 -3.65,2.2 -3.65,4.35 0.3,1.1 1.6,2 1,0.65 2.85,1.3 2.6,0.8 6.45,1.25 l 7.25,0.35 2.3,-5.45 -2.5,-4.7 -1.8,-3.8 q -4,1 -6.45,1.9 m 26.2,0.05 q 1.35,1.35 1.35,3.3 0,1.95 -1.35,3.35 -1.4,1.35 -3.35,1.35 -1.95,0 -3.3,-1.35 -1.4,-1.4 -1.4,-3.35 0,-1.95 1.4,-3.3 1.35,-1.4 3.3,-1.4 1.95,0 3.35,1.4 M 25.45,39.2 23.1,35.45 21.6,39.3 25.45,39.2 M 19,54.7 q 0.8,0.85 0.8,2 0,1.15 -0.8,2 -0.85,0.85 -2,0.85 -1.2,0 -2,-0.85 -0.85,-0.85 -0.85,-2 0,-1.15 0.85,-2 0.8,-0.8 2,-0.8 1.15,0 2,0.8"
   id="path4961"
   inkscape:connector-curvature="0" />
</g>
<g
   id="PathID_4"
   transform="matrix(3.783, 0, 0, 3.783, 192.5, 202.9)"
   opacity="1">
</g>
<g
   id="PathID_5"
   transform="matrix(3.71052, 0, 0, 3.71052, 323.95, 324.35)"
   opacity="1">
<path
   style="fill:#010203;fill-opacity:0"
   d="M36 -36.1Q51 -21.1 51 0Q51 21.1 36 36Q21.1 51 0 51Q-21.1 51 -36.1 36Q-51 21.1 -51 0Q-51 -21.1 -36.1 -36.1Q-21.1 -51 0 -51Q21.1 -51 36 -36.1"
   id="path4965" />
</g>

<g
   id="PathID_7"
   transform="matrix(4.65545, 0, 0, 4.65545, 323.8, 323.8)"
   opacity="1">
<path
   style="fill:#010203;fill-opacity:0"
   d="M36 -36.1Q51 -21.1 51 0Q51 21.1 36 36Q21.1 51 0 51Q-21.1 51 -36.1 36Q-51 21.1 -51 0Q-51 -21.1 -36.1 -36.1Q-21.1 -51 0 -51Q21.1 -51 36 -36.1"
   id="path4971" />
</g>
<g
   id="PathID_8"
   transform="matrix(4.65545,0,0,4.65545,323.8,323.8)"
   style="opacity:1;stroke:#008aff;stroke-width:1.62370026;stroke-miterlimit:4;stroke-dasharray:none;stroke-opacity:1">
<path
   style="fill:none;stroke:#ffff00;stroke-width:1.62370026;stroke-linecap:round;stroke-linejoin:round;stroke-miterlimit:4;stroke-dasharray:none;stroke-opacity:1"
   d="m 35.95,-36.1 q 15,15 15,36.1 0,21.05 -15,35.95 -14.9,15 -35.95,15 -21.1,0 -36.1,-15 Q -51,21.05 -51,0 -51,-21.1 -36.1,-36.1 -21.1,-51 0,-51 q 21.05,0 35.95,14.9 z"
   id="path4974"
   inkscape:connector-curvature="0" />
</g>
<g
   id="PathID_9"
   transform="matrix(0.528772,0.40172,-0.40172,0.528772,181.65,497.75)"
   style="opacity:1;fill:#ffff00;fill-opacity:1">
<path
   style="fill:#ffff00;fill-opacity:1"
   d="m 6.7,-32.4 -0.95,2.05 -2.95,-2.7 1.4,-1.85 -1.75,-0.5 1.05,-4.05 1.5,1 -0.1,-2.3 h 3.55 l -0.1,2.3 1.6,-1 1.4,4.15 -1.9,0.45 1.05,1.7 -2.8,2.8 -1,-2.05"
   id="path4977"
   inkscape:connector-curvature="0" />
</g>
<g
   id="PathID_10"
   transform="matrix(0.528772, 0.40172, -0.40172, 0.528772, 181.65, 497.75)"
   opacity="1">
</g>
<g
   id="PathID_11"
   transform="matrix(0.549072,0.373496,-0.373496,0.549072,190.2,504.35)"
   style="opacity:1;fill:#ffff00;fill-opacity:1">
<path
   style="fill:#ffff00;fill-opacity:1"
   d="m 6.7,-32.4 -0.95,2.05 -2.95,-2.7 1.4,-1.85 -1.75,-0.5 1.05,-4.05 1.5,1 -0.1,-2.3 h 3.55 l -0.1,2.3 1.6,-1 1.4,4.15 -1.9,0.45 1.05,1.7 -2.8,2.8 -1,-2.05"
   id="path4981"
   inkscape:connector-curvature="0" />
</g>
<g
   id="PathID_12"
   transform="matrix(0.549072, 0.373496, -0.373496, 0.549072, 190.2, 504.35)"
   opacity="1">
</g>
<g
   id="PathID_13"
   transform="matrix(0.573788,0.334284,-0.334284,0.573788,199.9,511)"
   style="opacity:1;fill:#ffff00;fill-opacity:1">
<path
   style="fill:#ffff00;fill-opacity:1"
   d="m 5.75,4.65 q -0.4,0 -0.9,-0.35 L 3.95,3.5 Q 3.55,3.05 3.25,2.5 3,2 3,1.65 V -15 l 9.3,6.15 v 4.8 h 6.65 v -5.8 L 3,-21.6 v -18.85 h 22.6 q 0.4,0 0.85,0.35 0.5,0.3 0.9,0.75 0.45,0.45 0.7,1 0.3,0.5 0.3,0.85 v 15.6 l -9.4,-6.2 v -3.65 H 12.4 v 4.3 l 15.95,11.7 V 4.65 H 5.75"
   id="path4985"
   inkscape:connector-curvature="0" />
</g>
<g
   id="PathID_14"
   transform="matrix(0.573788, 0.334284, -0.334284, 0.573788, 199.9, 511)"
   opacity="1">
</g>
<g
   id="PathID_15"
   transform="matrix(0.605587,0.272476,-0.272476,0.605587,221.1,523.35)"
   style="opacity:1;fill:#ffff00;fill-opacity:1">
<path
   style="fill:#ffff00;fill-opacity:1"
   d="m 25.5,-40.45 q 0.45,0 0.9,0.35 0.5,0.3 0.9,0.75 0.45,0.45 0.7,1 0.3,0.5 0.3,0.85 v 16.95 l -9.35,-6.2 v -5 H 12.3 v 27.7 h 6.65 v -9.35 l 9.35,6.25 V 4.65 H 5.75 q -0.4,0 -0.9,-0.35 L 3.95,3.5 Q 3.55,3.05 3.25,2.5 3,2 3,1.65 v -42.1 h 22.5"
   id="path4989"
   inkscape:connector-curvature="0" />
</g>
<g
   id="PathID_16"
   transform="matrix(0.605587, 0.272476, -0.272476, 0.605587, 221.1, 523.35)"
   opacity="1">
</g>
<g
   id="PathID_17"
   transform="matrix(0.627031,0.218659,-0.218659,0.627031,242.6,533)"
   style="opacity:1;fill:#ffff00;fill-opacity:1">
<path
   style="fill:#ffff00;fill-opacity:1"
   d="M 12.55,-40.45 V 4.65 H 3.2 V -34.2 l -5.1,-6.25 h 14.45"
   id="path4993"
   inkscape:connector-curvature="0" />
</g>
<g
   id="PathID_18"
   transform="matrix(0.627031, 0.218659, -0.218659, 0.627031, 242.6, 533)"
   opacity="1">
</g>
<g
   id="PathID_19"
   transform="matrix(0.640756,0.174387,-0.174387,0.640756,254.75,537.25)"
   style="opacity:1;fill:#ffff00;fill-opacity:1">
<path
   style="fill:#ffff00;fill-opacity:1"
   d="M 25.75,-27.55 H 16.4 v -4.2 h -3.85 v 9.2 h 12 l -8.2,8.7 h -3.8 v 9.8 H 16.4 V -8.3 h 9.35 V 4.65 H 3.2 V -34.2 l -5.1,-6.25 h 27.65 v 12.9"
   id="path4997"
   inkscape:connector-curvature="0" />
</g>
<g
   id="PathID_20"
   transform="matrix(0.640756, 0.174387, -0.174387, 0.640756, 254.75, 537.25)"
   opacity="1">
</g>
<g
   id="PathID_21"
   transform="matrix(0.657232,0.0949983,-0.0949983,0.657232,276.8,543.1)"
   style="opacity:1;fill:#ffff00;fill-opacity:1">
<path
   style="fill:#ffff00;fill-opacity:1"
   d="M 12.55,4.65 H 3.2 V -34.2 l -5.1,-6.25 h 14 l 8,18.15 v -18.15 h 9.3 V 4.1 l -4.45,4.85 -12.4,-26.3 v 22"
   id="path5001"
   inkscape:connector-curvature="0" />
</g>
<g
   id="PathID_22"
   transform="matrix(0.657232, 0.0949983, -0.0949983, 0.657232, 276.8, 543.1)"
   opacity="1">
</g>
<g
   id="PathID_23"
   transform="matrix(0.663562,0.0257784,-0.0257784,0.663562,301.8,546.9)"
   style="opacity:1;fill:#ffff00;fill-opacity:1">
<path
   style="fill:#ffff00;fill-opacity:1"
   d="m 25.5,-40.45 q 0.45,0 0.9,0.35 0.5,0.3 0.9,0.75 0.45,0.45 0.7,1 0.3,0.5 0.3,0.85 v 16.95 l -9.35,-6.2 v -5 H 12.3 v 27.7 h 6.65 v -9.35 l 9.35,6.25 V 4.65 H 5.75 q -0.4,0 -0.9,-0.35 L 3.95,3.5 Q 3.55,3.05 3.25,2.5 3,2 3,1.65 v -42.1 h 22.5"
   id="path5005"
   inkscape:connector-curvature="0" />
</g>
<g
   id="PathID_24"
   transform="matrix(0.663562, 0.0257784, -0.0257784, 0.663562, 301.8, 546.9)"
   opacity="1">
</g>
<g
   id="PathID_25"
   transform="matrix(0.663284,-0.032153,0.032153,0.663284,326.15,547.9)"
   style="opacity:1;fill:#ffff00;fill-opacity:1">
<path
   style="fill:#ffff00;fill-opacity:1"
   d="M 25.75,-27.55 H 16.4 v -4.2 h -3.85 v 9.2 h 12 l -8.2,8.7 h -3.8 v 9.8 H 16.4 V -8.3 h 9.35 V 4.65 H 3.2 V -34.2 l -5.1,-6.25 h 27.65 v 12.9"
   id="path5009"
   inkscape:connector-curvature="0" />
</g>
<g
   id="PathID_26"
   transform="matrix(0.663284, -0.032153, 0.032153, 0.663284, 326.15, 547.9)"
   opacity="1">
</g>
<g
   id="PathID_27"
   transform="matrix(0.650088,-0.135518,0.135518,0.650088,359.45,545.05)"
   style="opacity:1;fill:#ffff00;fill-opacity:1">
<path
   style="fill:#ffff00;fill-opacity:1"
   d="m 25.5,-40.45 q 0.45,0 0.9,0.35 0.5,0.3 0.9,0.75 0.45,0.45 0.7,1 0.3,0.5 0.3,0.85 v 16.95 l -9.35,-6.2 v -5 H 12.3 v 27.7 h 6.65 v -9.35 l 9.35,6.25 V 4.65 H 5.75 q -0.4,0 -0.9,-0.35 L 3.95,3.5 Q 3.55,3.05 3.25,2.5 3,2 3,1.65 v -42.1 h 22.5"
   id="path5013"
   inkscape:connector-curvature="0" />
</g>
<g
   id="PathID_28"
   transform="matrix(0.650088, -0.135518, 0.135518, 0.650088, 359.45, 545.05)"
   opacity="1">
</g>
<g
   id="PathID_29"
   transform="matrix(0.632361,-0.202728,0.202728,0.632361,383.2,539.9)"
   style="opacity:1;fill:#ffff00;fill-opacity:1">
<path
   style="fill:#ffff00;fill-opacity:1"
   d="m 12.55,-40.45 v 36.4 H 16.4 V -8.3 h 9.35 V 4.65 H 3.2 V -34.2 l -5.1,-6.25 h 14.45"
   id="path5017"
   inkscape:connector-curvature="0" />
</g>
<g
   id="PathID_30"
   transform="matrix(0.632361, -0.202728, 0.202728, 0.632361, 383.2, 539.9)"
   opacity="1">
</g>
<g
   id="PathID_31"
   transform="matrix(0.607706,-0.267717,0.267717,0.607706,404.8,532.8)"
   style="opacity:1;fill:#ffff00;fill-opacity:1">
<path
   style="fill:#ffff00;fill-opacity:1"
   d="m 12.25,-40.45 v 36.4 h 6.6 v -36.4 h 9.4 V 4.65 H 5.7 Q 5.3,4.65 4.8,4.3 L 3.9,3.5 Q 3.5,3.05 3.2,2.5 2.95,2 2.95,1.65 V -34.2 l -5.15,-6.25 h 14.45"
   id="path5021"
   inkscape:connector-curvature="0" />
</g>
<g
   id="PathID_32"
   transform="matrix(0.607706, -0.267717, 0.267717, 0.607706, 404.8, 532.8)"
   opacity="1">
</g>
<g
   id="PathID_33"
   transform="matrix(0.576393,-0.329773,0.329773,0.576393,427.1,522.7)"
   style="opacity:1;fill:#ffff00;fill-opacity:1">
<path
   style="fill:#ffff00;fill-opacity:1"
   d="M 3.2,4.65 V -34.2 l -5.1,-6.25 h 28.4 q 0.4,0 0.9,0.35 0.5,0.3 0.9,0.75 0.4,0.45 0.65,1 0.3,0.5 0.3,0.85 V -20 l -4.1,2.85 4.1,2.8 v 16 q 0,0.35 -0.3,0.85 -0.25,0.55 -0.65,1 -0.4,0.45 -0.9,0.8 -0.5,0.35 -0.9,0.35 H 3.2 m 16.7,-36.4 h -7.35 v 8.05 l -2.25,2.1 2.25,5.5 v 12.05 h 7.35 v -9.55 l -3.35,2.25 -3.75,-9.2 7.1,-5.65 v -5.55"
   id="path5025"
   inkscape:connector-curvature="0" />
</g>
<g
   id="PathID_34"
   transform="matrix(0.576393, -0.329773, 0.329773, 0.576393, 427.1, 522.7)"
   opacity="1">
</g>
<g
   id="PathID_35"
   transform="matrix(0.551985,-0.369177,0.369177,0.551985,447.9,510.5)"
   style="opacity:1;fill:#ffff00;fill-opacity:1">
<path
   style="fill:#ffff00;fill-opacity:1"
   d="m 6.7,-32.4 -0.95,2.05 -2.95,-2.7 1.4,-1.85 -1.75,-0.5 1.05,-4.05 1.5,1 -0.1,-2.3 h 3.55 l -0.1,2.3 1.6,-1 1.4,4.15 -1.9,0.45 1.05,1.7 -2.8,2.8 -1,-2.05"
   id="path5029"
   inkscape:connector-curvature="0" />
</g>
<g
   id="PathID_36"
   transform="matrix(0.551985, -0.369177, 0.369177, 0.551985, 447.9, 510.5)"
   opacity="1">
</g>
<g
   id="PathID_37"
   transform="matrix(0.531907,-0.39756,0.39756,0.531907,456.75,504.35)"
   style="opacity:1;fill:#ffff00;fill-opacity:1">
<path
   style="fill:#ffff00;fill-opacity:1"
   d="m 6.7,-32.4 -0.95,2.05 -2.95,-2.7 1.4,-1.85 -1.75,-0.5 1.05,-4.05 1.5,1 -0.1,-2.3 h 3.55 l -0.1,2.3 1.6,-1 1.4,4.15 -1.9,0.45 1.05,1.7 -2.8,2.8 -1,-2.05"
   id="path5033"
   inkscape:connector-curvature="0" />
</g>
<g
   id="PathID_38"
   transform="matrix(0.531907, -0.39756, 0.39756, 0.531907, 456.75, 504.35)"
   opacity="1">
</g>
<g
   id="PathID_39"
   transform="matrix(0.29971,0.217752,-0.217752,0.29971,208.9,465.1)"
   style="opacity:1;fill:#ffffff">
<path
   style="fill:#ffffff;fill-opacity:1"
   d="M 33.6,0 H 7.05 v -15.3 h -4.5 v -10.2 h 4.5 V -40.95 H 33.6 v 10.2 H 17.3 v 5.25 h 16.3 v 10.2 H 17.3 v 5.1 H 33.6 V 0"
   id="path5037"
   inkscape:connector-curvature="0" />
</g>
<g
   id="PathID_40"
   transform="matrix(0.29971, 0.217752, -0.217752, 0.29971, 208.9, 465.1)"
   opacity="1">
</g>
<g
   id="PathID_41"
   transform="matrix(0.317548,0.190802,-0.190802,0.317548,221.35,474.25)"
   style="opacity:1;fill:#ffffff">
<path
   style="fill:#ffffff;fill-opacity:1"
   d="m 31.4,-40.95 v 10.2 H 14.05 v 5.25 h 9.65 q 4.25,0 7.25,3 3,3 3,7.2 v 5.1 q 0,4.2 -3,7.2 -3,3 -7.25,3 H 3.8 v -10.2 h 19.9 v -5.1 h -9.65 q -4.2,0 -7.2,-3 -3.05,-2.95 -3.05,-7.2 v -5.25 q 0,-4.2 3.05,-7.2 3,-3 7.2,-3 H 31.4"
   id="path5041"
   inkscape:connector-curvature="0" />
</g>
<g
   id="PathID_42"
   transform="matrix(0.317548, 0.190802, -0.190802, 0.317548, 221.35, 474.25)"
   opacity="1">
</g>
<g
   id="PathID_43"
   transform="matrix(0.330084,0.168186,-0.168186,0.330084,234.4,482.25)"
   style="opacity:1;fill:#ffffff">
<path
   style="fill:#ffffff;fill-opacity:1"
   d="M 21.9,0 H 11.65 V -30.7 H 1.25 V -40.9 H 32.3 v 10.2 H 21.9 V 0"
   id="path5045"
   inkscape:connector-curvature="0" />
</g>
<g
   id="PathID_44"
   transform="matrix(0.330084, 0.168186, -0.168186, 0.330084, 234.4, 482.25)"
   opacity="1">
</g>
<g
   id="PathID_45"
   transform="matrix(0.343487,0.138778,-0.138778,0.343487,246.9,488.65)"
   style="opacity:1;fill:#ffffff">
<path
   style="fill:#ffffff;fill-opacity:1"
   d="m 16.05,-23.9 v 3.4 h 13.6 v -3.4 q 0,-2.8 -2,-4.8 -2,-2.05 -4.8,-2.05 -2.9,0 -4.85,2.05 -1.95,2 -1.95,4.8 m 0,23.9 H 5.8 V -10.3 H 1.3 v -10.2 h 4.5 v -3.4 q 0,-7.05 5,-12.05 4.95,-5 12.05,-5 7,0 12,5 5.05,5 5.05,12.05 V 0 H 29.65 V -10.3 H 16.05 V 0"
   id="path5049"
   inkscape:connector-curvature="0" />
</g>
<g
   id="PathID_46"
   transform="matrix(0.343487, 0.138778, -0.138778, 0.343487, 246.9, 488.65)"
   opacity="1">
</g>
<g
   id="PathID_47"
   transform="matrix(0.356111,0.102113,-0.102113,0.356111,263.65,495.45)"
   style="opacity:1;fill:#ffffff">
<path
   style="fill:#ffffff;fill-opacity:1"
   d="m 17.25,-30.7 v 5.2 H 28.7 q 0.9,0 1.5,-0.85 0.65,-0.8 0.65,-1.8 0,-1.05 -0.75,-1.8 -0.75,-0.75 -1.85,-0.75 h -11 m 15.2,17.9 q 0,-1.05 -0.75,-1.75 Q 31,-15.3 29.9,-15.3 H 17.25 v 5.1 H 29.9 q 1.1,0 1.8,-0.75 0.75,-0.75 0.75,-1.85 M 7.05,0 v -15.3 h -4.5 v -10.2 h 4.5 v -15.4 l 21.2,-0.05 q 5.35,0 9.05,3.75 3.75,3.75 3.75,9.05 0,3.6 -1.85,6.65 3.5,3.65 3.5,8.7 0,5.35 -3.75,9.1 -3.7,3.7 -9,3.7 H 7.05"
   id="path5053"
   inkscape:connector-curvature="0" />
</g>
<g
   id="PathID_48"
   transform="matrix(0.356111, 0.102113, -0.102113, 0.356111, 263.65, 495.45)"
   opacity="1">
</g>
<g
   id="PathID_49"
   transform="matrix(0.363656,0.0706875,-0.0706875,0.363656,281.8,500.8)"
   style="opacity:1;fill:#ffffff">
<path
   style="fill:#ffffff;fill-opacity:1"
   d="M 31.65,0 H 5.1 v -40.95 h 10.25 v 30.75 h 16.3 V 0"
   id="path5057"
   inkscape:connector-curvature="0" />
</g>
<g
   id="PathID_50"
   transform="matrix(0.363656, 0.0706875, -0.0706875, 0.363656, 281.8, 500.8)"
   opacity="1">
</g>
<g
   id="PathID_51"
   transform="matrix(0.366857,0.0515584,-0.0515584,0.366857,294.85,503.4)"
   style="opacity:1;fill:#ffffff">
<path
   style="fill:#ffffff;fill-opacity:1"
   d="M 5.1,0 V -40.95 H 15.35 V 0 H 5.1"
   id="path5061"
   inkscape:connector-curvature="0" />
</g>
<g
   id="PathID_52"
   transform="matrix(0.366857, 0.0515584, -0.0515584, 0.366857, 294.85, 503.4)"
   opacity="1">
</g>
<g
   id="PathID_53"
   transform="matrix(0.36956,0.0258421,-0.0258421,0.36956,303.55,504.6)"
   style="opacity:1;fill:#ffffff">
<path
   style="fill:#ffffff;fill-opacity:1"
   d="m 31.4,-40.95 v 10.2 H 14.05 v 5.25 h 9.65 q 4.25,0 7.25,3 3,3 3,7.2 v 5.1 q 0,4.2 -3,7.2 -3,3 -7.25,3 H 3.8 v -10.2 h 19.9 v -5.1 h -9.65 q -4.2,0 -7.2,-3 -3.05,-2.95 -3.05,-7.2 v -5.25 q 0,-4.2 3.05,-7.2 3,-3 7.2,-3 H 31.4"
   id="path5065"
   inkscape:connector-curvature="0" />
</g>
<g
   id="PathID_54"
   transform="matrix(0.36956, 0.0258421, -0.0258421, 0.36956, 303.55, 504.6)"
   opacity="1">
</g>
<g
   id="PathID_55"
   transform="matrix(0.370462,0,0,0.370462,319.15,505.75)"
   style="opacity:1;fill:#ffffff">
<path
   style="fill:#ffffff;fill-opacity:1"
   d="M 32.4,-25.5 V -40.95 H 42.65 V 0 H 32.4 V -15.3 H 17.3 V 0 H 7.05 v -15.3 h -4.5 v -10.2 h 4.5 V -40.95 H 17.3 v 15.45 h 15.1"
   id="path5069"
   inkscape:connector-curvature="0" />
</g>
<g
   id="PathID_56"
   transform="matrix(0.370462, 0, 0, 0.370462, 319.15, 505.75)"
   opacity="1">
</g>
<g
   id="PathID_57"
   transform="matrix(0.368433,-0.0387239,0.0387239,0.368433,338.6,505.35)"
   style="opacity:1;fill:#ffffff">
<path
   style="fill:#ffffff;fill-opacity:1"
   d="M 33.6,0 H 7.05 v -15.3 h -4.5 v -10.2 h 4.5 V -40.95 H 33.6 v 10.2 H 17.3 v 5.25 h 16.3 v 10.2 H 17.3 v 5.1 H 33.6 V 0"
   id="path5073"
   inkscape:connector-curvature="0" />
</g>
<g
   id="PathID_58"
   transform="matrix(0.368433, -0.0387239, 0.0387239, 0.368433, 338.6, 505.35)"
   opacity="1">
</g>
<g
   id="PathID_59"
   transform="matrix(0.363656,-0.0706875,0.0706875,0.363656,354.2,503.55)"
   style="opacity:1;fill:#ffffff">
<path
   style="fill:#ffffff;fill-opacity:1"
   d="M 15.35,-10.2 H 25.6 q 4.2,0 7.2,-3.05 3,-3 3,-7.25 0,-4.25 -3,-7.25 -2.95,-3 -7.2,-3 H 15.35 V -10.2 M 5.1,0 v -40.95 h 20.5 q 8.45,0 14.4,6 6,6 6,14.45 Q 46,-12 40,-6 34.05,0 25.6,0 H 5.1"
   id="path5077"
   inkscape:connector-curvature="0" />
</g>
<g
   id="PathID_60"
   transform="matrix(0.363656, -0.0706875, 0.0706875, 0.363656, 354.2, 503.55)"
   opacity="1">
</g>
<g
   id="PathID_61"
   transform="matrix(0.356111,-0.102113,0.102113,0.356111,373.65,499.35)"
   style="opacity:1;fill:#ffffff">
<path
   style="fill:#ffffff;fill-opacity:1"
   d="M 12.75,0 H 2.55 v -10.2 h 10.2 V 0 m 0,-15.35 H 2.55 v -10.2 h 10.2 v 10.2"
   id="path5081"
   inkscape:connector-curvature="0" />
</g>
<g
   id="PathID_62"
   transform="matrix(0.356111, -0.102113, 0.102113, 0.356111, 373.65, 499.35)"
   opacity="1">
</g>
<g
   id="PathID_63"
   transform="matrix(0.343487,-0.138778,0.138778,0.343487,388.3,494.7)"
   style="opacity:1;fill:#ffffff">
<path
   style="fill:#ffffff;fill-opacity:1"
   d="m 12.8,-15.3 v 5.1 H 32.7 V 0 H 2.55 v -15.3 q 0,-4.2 3.05,-7.2 3,-3 7.25,-3 h 2.45 4.6 2.6 v -5.25 H 5.1 v -10.2 h 17.4 q 4.2,0 7.2,3 3,3 3,7.2 v 5.25 q 0,4.2 -3,7.2 -2.95,3 -7.15,3 h -9.7 -0.05"
   id="path5085"
   inkscape:connector-curvature="0" />
</g>
<g
   id="PathID_64"
   transform="matrix(0.343487, -0.138778, 0.138778, 0.343487, 388.3, 494.7)"
   opacity="1">
</g>
<g
   id="PathID_65"
   transform="matrix(0.332969,-0.1624,0.1624,0.332969,402.3,488.95)"
   style="opacity:1;fill:#ffffff">
<path
   style="fill:#ffffff;fill-opacity:1"
   d="m 35.15,-10.25 q 0,4.85 -3.15,7.7 Q 29.2,0 24.95,0 H 14.1 q -4.25,0 -7.25,-3 -3,-3 -3,-7.25 v -20.5 q 0,-4.2 3,-7.2 2.95,-3 7.25,-3 l 10.85,0.05 q 4.2,0 7.2,2.95 3,3 3,7.2 v 20.5 m -10.2,-20.5 H 14.1 v 20.5 h 10.85 v -20.5"
   id="path5089"
   inkscape:connector-curvature="0" />
</g>
<g
   id="PathID_66"
   transform="matrix(0.332969, -0.1624, 0.1624, 0.332969, 402.3, 488.95)"
   opacity="1">
</g>
<g
   id="PathID_67"
   transform="matrix(0.317548,-0.190802,0.190802,0.317548,416.55,481.65)"
   style="opacity:1;fill:#ffffff">
<path
   style="fill:#ffffff;fill-opacity:1"
   d="m 12.8,-15.3 v 5.1 H 32.7 V 0 H 2.55 v -15.3 q 0,-4.2 3.05,-7.2 3,-3 7.25,-3 h 2.45 4.6 2.6 v -5.25 H 5.1 v -10.2 h 17.4 q 4.2,0 7.2,3 3,3 3,7.2 v 5.25 q 0,4.2 -3,7.2 -2.95,3 -7.15,3 h -9.7 -0.05"
   id="path5093"
   inkscape:connector-curvature="0" />
</g>
<g
   id="PathID_68"
   transform="matrix(0.317548, -0.190802, 0.190802, 0.317548, 416.55, 481.65)"
   opacity="1">
</g>
<g
   id="PathID_69"
   transform="matrix(0.29971,-0.217752,0.217752,0.29971,429.4,473.65)"
   style="opacity:1;fill:#ffffff">
<path
   style="fill:#ffffff;fill-opacity:1"
   d="m 35.15,-10.25 q 0,4.85 -3.15,7.7 Q 29.2,0 24.95,0 H 14.1 q -4.25,0 -7.25,-3 -3,-3 -3,-7.25 v -20.5 q 0,-4.2 3,-7.2 2.95,-3 7.25,-3 l 10.85,0.05 q 4.2,0 7.2,2.95 3,3 3,7.2 v 20.5 m -10.2,-20.5 H 14.1 v 20.5 h 10.85 v -20.5"
   id="path5097"
   inkscape:connector-curvature="0" />
</g>
<g
   id="PathID_70"
   transform="matrix(0.29971, -0.217752, 0.217752, 0.29971, 429.4, 473.65)"
   opacity="1">
</g>
<g
   id="PathID_71"
   transform="matrix(0.177628,0,0,0.177628,522.55,286.3)"
   style="opacity:1;fill:#008aff;fill-opacity:1">
<path
   style="fill:#ffff00;fill-opacity:1"
   d="m 144.05,45.8 q 5.8,13.6 5.9,29.15 -0.1,15.65 -5.9,29.25 -5.8,13.5 -16.1,23.8 -10.3,10.3 -23.8,16.1 Q 90.55,149.9 74.9,150 59.35,149.9 45.8,144.1 32.2,138.3 22,128 11.7,117.7 5.85,104.2 0.05,90.6 -0.05,74.95 0.05,59.4 5.85,45.8 11.7,32.25 22,22 32.3,11.7 45.8,5.9 59.35,0.1 74.9,0 q 15.65,0.1 29.25,5.9 13.5,5.8 23.8,16.1 10.3,10.3 16.1,23.8 m -22,-17.9 Q 112.85,18.85 100.85,13.7 88.8,8.55 74.9,8.45 61.05,8.55 49.05,13.7 37.05,18.85 27.9,27.9 18.8,37.1 13.65,49.1 8.5,61.2 8.4,74.95 q 0.1,13.85 5.25,25.95 5.15,12 14.25,21.2 9.15,9.05 21.15,14.2 12.1,5.15 25.85,5.25 13.9,-0.1 25.95,-5.25 12,-5.15 21.2,-14.2 9.1,-9.2 14.25,-21.2 5.15,-12.1 5.25,-25.95 -0.1,-13.85 -5.25,-25.85 -5.15,-12 -14.25,-21.2 M 100.85,27.45 88.4,60.5 H 64.9 l -17.25,-33.05 3.4,-1.8 q 3.35,-1.65 9,-3.65 5.6,-1.85 12.55,-2.7 6.9,-0.75 14.2,0.95 7.35,1.7 14.05,7.2 M 81.1,80.55 q -2.7,2.75 -6.85,2.95 -4.1,-0.1 -6.8,-2.95 -2.75,-2.7 -2.85,-6.8 0.1,-4.15 2.85,-6.85 2.7,-2.7 6.8,-2.8 4.15,0.1 6.85,2.8 2.7,2.7 2.9,6.85 -0.1,4.1 -2.9,6.8 m 13.5,-11.2 35.15,4.1 q 1.75,8.55 -0.1,15.75 -1.9,7.3 -5.75,13.1 -3.9,5.8 -8.15,9.95 -4.3,4.1 -7.3,6.25 L 105.3,120.75 83.8,90.2 94.6,69.35 m -74.4,4.1 35.15,-4.1 10.75,20.85 -21.35,30.55 -3.2,-2.25 q -3,-2.15 -7.3,-6.25 Q 29.95,108.1 26.1,102.3 22.2,96.5 20.3,89.2 18.45,82 20.2,73.45"
   id="path5101"
   inkscape:connector-curvature="0" />
</g>
<g
   id="PathID_72"
   transform="matrix(0.177628, 0, 0, 0.177628, 522.55, 286.3)"
   opacity="1">
</g>
<g
   id="PathID_73"
   transform="matrix(0.177627,0,0,0.177627,97.1,286.9)"
   style="opacity:1;fill:#008aff;fill-opacity:1">
<path
   style="fill:#ffff00;fill-opacity:1"
   d="m 144.05,45.8 q 5.8,13.6 5.9,29.15 -0.1,15.65 -5.9,29.25 -5.8,13.5 -16.1,23.8 -10.3,10.3 -23.8,16.1 Q 90.55,149.9 74.9,150 59.35,149.9 45.8,144.1 32.2,138.3 22,128 11.7,117.7 5.85,104.2 0.05,90.6 -0.05,74.95 0.05,59.4 5.85,45.8 11.7,32.25 22,22 32.3,11.7 45.8,5.9 59.35,0.1 74.9,0 q 15.65,0.1 29.25,5.9 13.5,5.8 23.8,16.1 10.3,10.3 16.1,23.8 m -22,-17.9 Q 112.85,18.85 100.85,13.7 88.8,8.55 74.9,8.45 61.05,8.55 49.05,13.7 37.05,18.85 27.9,27.9 18.8,37.1 13.65,49.1 8.5,61.2 8.4,74.95 q 0.1,13.85 5.25,25.95 5.15,12 14.25,21.2 9.15,9.05 21.15,14.2 12.1,5.15 25.85,5.25 13.9,-0.1 25.95,-5.25 12,-5.15 21.2,-14.2 9.1,-9.2 14.25,-21.2 5.15,-12.1 5.25,-25.95 -0.1,-13.85 -5.25,-25.85 -5.15,-12 -14.25,-21.2 M 100.85,27.45 88.4,60.5 H 64.9 l -17.25,-33.05 3.4,-1.8 q 3.35,-1.65 9,-3.65 5.6,-1.85 12.55,-2.7 6.9,-0.75 14.2,0.95 7.35,1.7 14.05,7.2 M 81.1,80.55 q -2.7,2.75 -6.85,2.95 -4.1,-0.1 -6.8,-2.95 -2.75,-2.7 -2.85,-6.8 0.1,-4.15 2.85,-6.85 2.7,-2.7 6.8,-2.8 4.15,0.1 6.85,2.8 2.7,2.7 2.9,6.85 -0.1,4.1 -2.9,6.8 m 13.5,-11.2 35.15,4.1 q 1.75,8.55 -0.1,15.75 -1.9,7.3 -5.75,13.1 -3.9,5.8 -8.15,9.95 -4.3,4.1 -7.3,6.25 L 105.3,120.75 83.8,90.2 94.6,69.35 m -74.4,4.1 35.15,-4.1 10.75,20.85 -21.35,30.55 -3.2,-2.25 q -3,-2.15 -7.3,-6.25 Q 29.95,108.1 26.1,102.3 22.2,96.5 20.3,89.2 18.45,82 20.2,73.45"
   id="path5105"
   inkscape:connector-curvature="0" />
</g>
<g
   id="PathID_74"
   transform="matrix(0.177627, 0, 0, 0.177627, 97.1, 286.9)"
   opacity="1">
</g>
<g
   id="PathID_75"
   transform="matrix(0.177628,0,0,0.177628,523.6,319.9)"
   style="opacity:1;fill:#008aff;fill-opacity:1">
<path
   style="fill:#ffff00;fill-opacity:1"
   d="m 144.05,45.8 q 5.8,13.6 5.9,29.15 -0.1,15.65 -5.9,29.25 -5.8,13.5 -16.1,23.8 -10.3,10.3 -23.8,16.1 Q 90.55,149.9 74.9,150 59.35,149.9 45.8,144.1 32.2,138.3 22,128 11.7,117.7 5.85,104.2 0.05,90.6 -0.05,74.95 0.05,59.4 5.85,45.8 11.7,32.25 22,22 32.3,11.7 45.8,5.9 59.35,0.1 74.9,0 q 15.65,0.1 29.25,5.9 13.5,5.8 23.8,16.1 10.3,10.3 16.1,23.8 m -22,-17.9 Q 112.85,18.85 100.85,13.7 88.8,8.55 74.9,8.45 61.05,8.55 49.05,13.7 37.05,18.85 27.9,27.9 18.8,37.1 13.65,49.1 8.5,61.2 8.4,74.95 q 0.1,13.85 5.25,25.95 5.15,12 14.25,21.2 9.15,9.05 21.15,14.2 12.1,5.15 25.85,5.25 13.9,-0.1 25.95,-5.25 12,-5.15 21.2,-14.2 9.1,-9.2 14.25,-21.2 5.15,-12.1 5.25,-25.95 -0.1,-13.85 -5.25,-25.85 -5.15,-12 -14.25,-21.2 M 100.85,27.45 88.4,60.5 H 64.9 l -17.25,-33.05 3.4,-1.8 q 3.35,-1.65 9,-3.65 5.6,-1.85 12.55,-2.7 6.9,-0.75 14.2,0.95 7.35,1.7 14.05,7.2 M 81.1,80.55 q -2.7,2.75 -6.85,2.95 -4.1,-0.1 -6.8,-2.95 -2.75,-2.7 -2.85,-6.8 0.1,-4.15 2.85,-6.85 2.7,-2.7 6.8,-2.8 4.15,0.1 6.85,2.8 2.7,2.7 2.9,6.85 -0.1,4.1 -2.9,6.8 m 13.5,-11.2 35.15,4.1 q 1.75,8.55 -0.1,15.75 -1.9,7.3 -5.75,13.1 -3.9,5.8 -8.15,9.95 -4.3,4.1 -7.3,6.25 L 105.3,120.75 83.8,90.2 94.6,69.35 m -74.4,4.1 35.15,-4.1 10.75,20.85 -21.35,30.55 -3.2,-2.25 q -3,-2.15 -7.3,-6.25 Q 29.95,108.1 26.1,102.3 22.2,96.5 20.3,89.2 18.45,82 20.2,73.45"
   id="path5109"
   inkscape:connector-curvature="0" />
</g>
<g
   id="PathID_76"
   transform="matrix(0.177628, 0, 0, 0.177628, 523.6, 319.9)"
   opacity="1">
</g>
<g
   id="PathID_77"
   transform="matrix(0.177627,0,0,0.177627,96.45,320.75)"
   style="opacity:1;fill:#008aff;fill-opacity:1">
<path
   style="fill:#ffff00;fill-opacity:1"
   d="m 144.05,45.8 q 5.8,13.6 5.9,29.15 -0.1,15.65 -5.9,29.25 -5.8,13.5 -16.1,23.8 -10.3,10.3 -23.8,16.1 Q 90.55,149.9 74.9,150 59.35,149.9 45.8,144.1 32.2,138.3 22,128 11.7,117.7 5.85,104.2 0.05,90.6 -0.05,74.95 0.05,59.4 5.85,45.8 11.7,32.25 22,22 32.3,11.7 45.8,5.9 59.35,0.1 74.9,0 q 15.65,0.1 29.25,5.9 13.5,5.8 23.8,16.1 10.3,10.3 16.1,23.8 m -22,-17.9 Q 112.85,18.85 100.85,13.7 88.8,8.55 74.9,8.45 61.05,8.55 49.05,13.7 37.05,18.85 27.9,27.9 18.8,37.1 13.65,49.1 8.5,61.2 8.4,74.95 q 0.1,13.85 5.25,25.95 5.15,12 14.25,21.2 9.15,9.05 21.15,14.2 12.1,5.15 25.85,5.25 13.9,-0.1 25.95,-5.25 12,-5.15 21.2,-14.2 9.1,-9.2 14.25,-21.2 5.15,-12.1 5.25,-25.95 -0.1,-13.85 -5.25,-25.85 -5.15,-12 -14.25,-21.2 M 100.85,27.45 88.4,60.5 H 64.9 l -17.25,-33.05 3.4,-1.8 q 3.35,-1.65 9,-3.65 5.6,-1.85 12.55,-2.7 6.9,-0.75 14.2,0.95 7.35,1.7 14.05,7.2 M 81.1,80.55 q -2.7,2.75 -6.85,2.95 -4.1,-0.1 -6.8,-2.95 -2.75,-2.7 -2.85,-6.8 0.1,-4.15 2.85,-6.85 2.7,-2.7 6.8,-2.8 4.15,0.1 6.85,2.8 2.7,2.7 2.9,6.85 -0.1,4.1 -2.9,6.8 m 13.5,-11.2 35.15,4.1 q 1.75,8.55 -0.1,15.75 -1.9,7.3 -5.75,13.1 -3.9,5.8 -8.15,9.95 -4.3,4.1 -7.3,6.25 L 105.3,120.75 83.8,90.2 94.6,69.35 m -74.4,4.1 35.15,-4.1 10.75,20.85 -21.35,30.55 -3.2,-2.25 q -3,-2.15 -7.3,-6.25 Q 29.95,108.1 26.1,102.3 22.2,96.5 20.3,89.2 18.45,82 20.2,73.45"
   id="path5113"
   inkscape:connector-curvature="0" />
</g>
<g
   id="PathID_78"
   transform="matrix(0.177627, 0, 0, 0.177627, 96.45, 320.75)"
   opacity="1">
</g>
<g
   id="PathID_79"
   transform="matrix(0.177628,0,0,0.177628,519.15,352.45)"
   style="opacity:1;fill:#008aff;fill-opacity:1">
<path
   style="fill:#ffff00;fill-opacity:1"
   d="m 144.05,45.8 q 5.8,13.6 5.9,29.15 -0.1,15.65 -5.9,29.25 -5.8,13.5 -16.1,23.8 -10.3,10.3 -23.8,16.1 Q 90.55,149.9 74.9,150 59.35,149.9 45.8,144.1 32.2,138.3 22,128 11.7,117.7 5.85,104.2 0.05,90.6 -0.05,74.95 0.05,59.4 5.85,45.8 11.7,32.25 22,22 32.3,11.7 45.8,5.9 59.35,0.1 74.9,0 q 15.65,0.1 29.25,5.9 13.5,5.8 23.8,16.1 10.3,10.3 16.1,23.8 m -22,-17.9 Q 112.85,18.85 100.85,13.7 88.8,8.55 74.9,8.45 61.05,8.55 49.05,13.7 37.05,18.85 27.9,27.9 18.8,37.1 13.65,49.1 8.5,61.2 8.4,74.95 q 0.1,13.85 5.25,25.95 5.15,12 14.25,21.2 9.15,9.05 21.15,14.2 12.1,5.15 25.85,5.25 13.9,-0.1 25.95,-5.25 12,-5.15 21.2,-14.2 9.1,-9.2 14.25,-21.2 5.15,-12.1 5.25,-25.95 -0.1,-13.85 -5.25,-25.85 -5.15,-12 -14.25,-21.2 M 100.85,27.45 88.4,60.5 H 64.9 l -17.25,-33.05 3.4,-1.8 q 3.35,-1.65 9,-3.65 5.6,-1.85 12.55,-2.7 6.9,-0.75 14.2,0.95 7.35,1.7 14.05,7.2 M 81.1,80.55 q -2.7,2.75 -6.85,2.95 -4.1,-0.1 -6.8,-2.95 -2.75,-2.7 -2.85,-6.8 0.1,-4.15 2.85,-6.85 2.7,-2.7 6.8,-2.8 4.15,0.1 6.85,2.8 2.7,2.7 2.9,6.85 -0.1,4.1 -2.9,6.8 m 13.5,-11.2 35.15,4.1 q 1.75,8.55 -0.1,15.75 -1.9,7.3 -5.75,13.1 -3.9,5.8 -8.15,9.95 -4.3,4.1 -7.3,6.25 L 105.3,120.75 83.8,90.2 94.6,69.35 m -74.4,4.1 35.15,-4.1 10.75,20.85 -21.35,30.55 -3.2,-2.25 q -3,-2.15 -7.3,-6.25 Q 29.95,108.1 26.1,102.3 22.2,96.5 20.3,89.2 18.45,82 20.2,73.45"
   id="path5117"
   inkscape:connector-curvature="0" />
</g>
<g
   id="PathID_80"
   transform="matrix(0.177628, 0, 0, 0.177628, 519.15, 352.45)"
   opacity="1">
</g>
<g
   id="PathID_81"
   transform="matrix(0.177627,0,0,0.177627,100.9,352.65)"
   style="opacity:1;fill:#008aff;fill-opacity:1">
<path
   style="fill:#000000;fill-opacity:0"
   d="m 144.05,45.8 q 5.8,13.6 5.9,29.15 -0.1,15.65 -5.9,29.25 -5.8,13.5 -16.1,23.8 -10.3,10.3 -23.8,16.1 Q 90.55,149.9 74.9,150 59.35,149.9 45.8,144.1 32.2,138.3 22,128 11.7,117.7 5.85,104.2 0.05,90.6 -0.05,74.95 0.05,59.4 5.85,45.8 11.7,32.25 22,22 32.3,11.7 45.8,5.9 59.35,0.1 74.9,0 q 15.65,0.1 29.25,5.9 13.5,5.8 23.8,16.1 10.3,10.3 16.1,23.8 m -22,-17.9 Q 112.85,18.85 100.85,13.7 88.8,8.55 74.9,8.45 61.05,8.55 49.05,13.7 37.05,18.85 27.9,27.9 18.8,37.1 13.65,49.1 8.5,61.2 8.4,74.95 q 0.1,13.85 5.25,25.95 5.15,12 14.25,21.2 9.15,9.05 21.15,14.2 12.1,5.15 25.85,5.25 13.9,-0.1 25.95,-5.25 12,-5.15 21.2,-14.2 9.1,-9.2 14.25,-21.2 5.15,-12.1 5.25,-25.95 -0.1,-13.85 -5.25,-25.85 -5.15,-12 -14.25,-21.2 M 100.85,27.45 88.4,60.5 H 64.9 l -17.25,-33.05 3.4,-1.8 q 3.35,-1.65 9,-3.65 5.6,-1.85 12.55,-2.7 6.9,-0.75 14.2,0.95 7.35,1.7 14.05,7.2 M 81.1,80.55 q -2.7,2.75 -6.85,2.95 -4.1,-0.1 -6.8,-2.95 -2.75,-2.7 -2.85,-6.8 0.1,-4.15 2.85,-6.85 2.7,-2.7 6.8,-2.8 4.15,0.1 6.85,2.8 2.7,2.7 2.9,6.85 -0.1,4.1 -2.9,6.8 m 13.5,-11.2 35.15,4.1 q 1.75,8.55 -0.1,15.75 -1.9,7.3 -5.75,13.1 -3.9,5.8 -8.15,9.95 -4.3,4.1 -7.3,6.25 L 105.3,120.75 83.8,90.2 94.6,69.35 m -74.4,4.1 35.15,-4.1 10.75,20.85 -21.35,30.55 -3.2,-2.25 q -3,-2.15 -7.3,-6.25 Q 29.95,108.1 26.1,102.3 22.2,96.5 20.3,89.2 18.45,82 20.2,73.45"
   id="path5121"
   inkscape:connector-curvature="0" />
</g>
<g
   id="PathID_82"
   transform="matrix(0.177627, 0, 0, 0.177627, 100.9, 352.65)"
   opacity="1">
</g>
<g
   id="PathID_83"
   transform="matrix(0.404325,-0.536341,0.536341,0.404325,155.3,213.55)"
   style="opacity:1;fill:#ffff00;fill-opacity:1;stroke:none;stroke-opacity:1">
<path
   style="fill:#ffff00;fill-opacity:1;stroke:none;stroke-opacity:1"
   d="M 12.55,4.65 H 3.2 V -34.2 l -5.1,-6.25 h 14 l 8,18.15 v -18.15 h 9.3 V 4.1 l -4.45,4.85 -12.4,-26.3 v 22"
   id="path5125"
   inkscape:connector-curvature="0" />
</g>
<g
   id="PathID_84"
   transform="matrix(0.404325, -0.536341, 0.536341, 0.404325, 155.3, 213.55)"
   opacity="1">
</g>
<g
   id="PathID_85"
   transform="matrix(0.458173,-0.49114,0.49114,0.458173,168.2,196.05)"
   style="opacity:1;fill:#ffff00;fill-opacity:1">
<path
   style="fill:#ffff00;fill-opacity:1"
   d="m 3,-40.45 h 22.5 q 0.45,0 0.9,0.35 0.5,0.3 0.9,0.75 0.45,0.45 0.7,1 0.3,0.5 0.3,0.85 V 4.65 H 5.75 q -0.4,0 -0.9,-0.35 L 3.95,3.5 Q 3.55,3.05 3.25,2.5 3,2 3,1.65 v -42.1 m 9.3,36.4 h 6.65 v -27.7 H 12.3 v 27.7"
   id="path5129"
   inkscape:connector-curvature="0" />
</g>
<g
   id="PathID_86"
   transform="matrix(0.458173, -0.49114, 0.49114, 0.458173, 168.2, 196.05)"
   opacity="1">
</g>
<g
   id="PathID_87"
   transform="matrix(0.507002,-0.440557,0.440557,0.507002,182.35,180.45)"
   style="opacity:1;fill:#ffff00;fill-opacity:1">
<path
   style="fill:#ffff00;fill-opacity:1"
   d="m 9.3,-40.45 h 15.5 l 7.75,45.1 H 22.4 L 21.55,0.3 11.6,-10.55 h 8.5 l -2.7,-17.1 -0.4,-1.3 -2.6,16.7 H 7.55 L 13.45,-5.6 11.7,4.65 H 1.55 l 7.75,-45.1"
   id="path5133"
   inkscape:connector-curvature="0" />
</g>
<g
   id="PathID_88"
   transform="matrix(0.507002, -0.440557, 0.440557, 0.507002, 182.35, 180.45)"
   opacity="1">
</g>
<g
   id="PathID_89"
   transform="matrix(0.550275,-0.385148,0.385148,0.550275,199.55,165.3)"
   style="opacity:1;fill:#ffff00;fill-opacity:1">
<path
   style="fill:#ffff00;fill-opacity:1"
   d="M 12.85,-17.5 20.8,-40.45 H 31 l -7.5,21.85 7.25,23 -8.2,5.2 -9.7,-27.1 m -0.3,-22.95 v 18.65 l -2.2,5.2 2.2,3.25 v 18 H 3.25 V -34.2 l -5.1,-6.25 h 14.4"
   id="path5137"
   inkscape:connector-curvature="0" />
</g>
<g
   id="PathID_90"
   transform="matrix(0.550275, -0.385148, 0.385148, 0.550275, 199.55, 165.3)"
   opacity="1">
</g>
<g
   id="PathID_91"
   transform="matrix(0.593111,-0.315215,0.315215,0.593111,217.4,152.9)"
   style="opacity:1;fill:#ffff00;fill-opacity:1">
<path
   style="fill:#ffff00;fill-opacity:1"
   d="M 20.1,-22.3 V -34.2 L 15,-40.45 H 29.4 V 4.65 H 20.1 V -13.6 H 17.7 L 9.5,-22.3 H 20.1 M 3.2,-34.2 -1.9,-40.45 h 14.45 v 16.4 h -7.1 l 7.1,7.5 V 4.65 H 3.2 V -34.2"
   id="path5141"
   inkscape:connector-curvature="0" />
</g>
<g
   id="PathID_92"
   transform="matrix(0.593111, -0.315215, 0.315215, 0.593111, 217.4, 152.9)"
   opacity="1">
</g>
<g
   id="PathID_93"
   transform="matrix(0.622811,-0.251491,0.251491,0.622811,236.5,142.4)"
   style="opacity:1;fill:#ffff00;fill-opacity:1">
<path
   style="fill:#ffff00;fill-opacity:1"
   d="m 9.3,-40.45 h 15.5 l 7.75,45.1 H 22.4 L 21.55,0.3 11.6,-10.55 h 8.5 l -2.7,-17.1 -0.4,-1.3 -2.6,16.7 H 7.55 L 13.45,-5.6 11.7,4.65 H 1.55 l 7.75,-45.1"
   id="path5145"
   inkscape:connector-curvature="0" />
</g>
<g
   id="PathID_94"
   transform="matrix(0.622811, -0.251491, 0.251491, 0.622811, 236.5, 142.4)"
   opacity="1">
</g>
<g
   id="PathID_95"
   transform="matrix(0.645687,-0.185012,0.185012,0.645687,257.65,133.65)"
   style="opacity:1;fill:#ffff00;fill-opacity:1">
<path
   style="fill:#ffff00;fill-opacity:1"
   d="m 12.55,-40.45 v 36.4 H 16.4 V -8.3 h 9.35 V 4.65 H 3.2 V -34.2 l -5.1,-6.25 h 14.45"
   id="path5149"
   inkscape:connector-curvature="0" />
</g>
<g
   id="PathID_96"
   transform="matrix(0.645687, -0.185012, 0.185012, 0.645687, 257.65, 133.65)"
   opacity="1">
</g>
<g
   id="PathID_97"
   transform="matrix(0.65702,-0.139521,0.139521,0.65702,276.25,128.2)"
   style="opacity:1;fill:#ffff00;fill-opacity:1">
<path
   style="fill:#ffff00;fill-opacity:1"
   d="M 12.55,-40.45 V 4.65 H 3.2 V -34.2 l -5.1,-6.25 h 14.45"
   id="path5153"
   inkscape:connector-curvature="0" />
</g>
<g
   id="PathID_98"
   transform="matrix(0.65702, -0.139521, 0.139521, 0.65702, 276.25, 128.2)"
   opacity="1">
</g>
<g
   id="PathID_99"
   transform="matrix(0.669126,-0.0584101,0.0584101,0.669126,295.5,124.45)"
   style="opacity:1;fill:#ffff00;fill-opacity:1">
<path
   style="fill:#ffff00;fill-opacity:1"
   d="m 15.3,-31.75 h -3 L 3,-25.9 v -14.55 h 25.3 l -12.4,36.4 h 3.05 L 28.3,-9.9 V 4.65 H 3 l 12.3,-36.4"
   id="path5157"
   inkscape:connector-curvature="0" />
</g>
<g
   id="PathID_100"
   transform="matrix(0.669126, -0.0584101, 0.0584101, 0.669126, 295.5, 124.45)"
   opacity="1">
</g>
<g
   id="PathID_101"
   transform="matrix(0.67167,1.30324e-4,-1.30324e-4,0.67167,316.5,122.65)"
   style="opacity:1;fill:#ffff00;fill-opacity:1">
<path
   style="fill:#ffff00;fill-opacity:1"
   d="M 12.55,-40.45 V 4.65 H 3.2 V -34.2 l -5.1,-6.25 h 14.45"
   id="path5161"
   inkscape:connector-curvature="0" />
</g>
<g
   id="PathID_102"
   transform="matrix(0.67167, 0.000130324, -0.000130324, 0.67167, 316.5, 122.65)"
   opacity="1">
</g>
<g
   id="PathID_103"
   transform="matrix(0.670743,0.0352827,-0.0352827,0.670743,326.95,122.5)"
   style="opacity:1;fill:#ffff00;fill-opacity:1">
<path
   style="fill:#ffff00;fill-opacity:1"
   d="m 12.55,-40.45 v 36.4 H 16.4 V -8.3 h 9.35 V 4.65 H 3.2 V -34.2 l -5.1,-6.25 h 14.45"
   id="path5165"
   inkscape:connector-curvature="0" />
</g>
<g
   id="PathID_104"
   transform="matrix(0.670743, 0.0352827, -0.0352827, 0.670743, 326.95, 122.5)"
   opacity="1">
</g>
<g
   id="PathID_105"
   transform="matrix(0.663381,0.105201,-0.105201,0.663381,346.25,123.8)"
   style="opacity:1;fill:#ffff00;fill-opacity:1">
<path
   style="fill:#ffff00;fill-opacity:1"
   d="m 12.55,-40.45 v 36.4 H 16.4 V -8.3 h 9.35 V 4.65 H 3.2 V -34.2 l -5.1,-6.25 h 14.45"
   id="path5169"
   inkscape:connector-curvature="0" />
</g>
<g
   id="PathID_106"
   transform="matrix(0.663381, 0.105201, -0.105201, 0.663381, 346.25, 123.8)"
   opacity="1">
</g>
<g
   id="PathID_107"
   transform="matrix(0.64875,0.173967,-0.173967,0.64875,365.4,126.9)"
   style="opacity:1;fill:#ffff00;fill-opacity:1">
<path
   style="fill:#ffff00;fill-opacity:1"
   d="m 9.3,-40.45 h 15.5 l 7.75,45.1 H 22.4 L 21.55,0.3 11.6,-10.55 h 8.5 l -2.7,-17.1 -0.4,-1.3 -2.6,16.7 H 7.55 L 13.45,-5.6 11.7,4.65 H 1.55 l 7.75,-45.1"
   id="path5173"
   inkscape:connector-curvature="0" />
</g>
<g
   id="PathID_108"
   transform="matrix(0.64875, 0.173967, -0.173967, 0.64875, 365.4, 126.9)"
   opacity="1">
</g>
<g
   id="PathID_109"
   transform="matrix(0.613548,0.273312,-0.273312,0.613548,396.15,136.05)"
   style="opacity:1;fill:#ffff00;fill-opacity:1">
<path
   style="fill:#ffff00;fill-opacity:1"
   d="m 5.75,4.65 q -0.4,0 -0.9,-0.35 L 3.95,3.5 Q 3.55,3.05 3.25,2.5 3,2 3,1.65 V -15 l 9.3,6.15 v 4.8 h 6.65 v -5.8 L 3,-21.6 v -18.85 h 22.6 q 0.4,0 0.85,0.35 0.5,0.3 0.9,0.75 0.45,0.45 0.7,1 0.3,0.5 0.3,0.85 v 15.6 l -9.4,-6.2 v -3.65 H 12.4 v 4.3 l 15.95,11.7 V 4.65 H 5.75"
   id="path5177"
   inkscape:connector-curvature="0" />
</g>
<g
   id="PathID_110"
   transform="matrix(0.613548, 0.273312, -0.273312, 0.613548, 396.15, 136.05)"
   opacity="1">
</g>
<g
   id="PathID_111"
   transform="matrix(0.581618,0.335948,-0.335948,0.581618,415.4,144.7)"
   style="opacity:1;fill:#ffff00;fill-opacity:1">
<path
   style="fill:#ffff00;fill-opacity:1"
   d="m 25.5,-40.45 q 0.45,0 0.9,0.35 0.5,0.3 0.9,0.75 0.45,0.45 0.7,1 0.3,0.5 0.3,0.85 v 16.95 l -9.35,-6.2 v -5 H 12.3 v 27.7 h 6.65 v -9.35 l 9.35,6.25 V 4.65 H 5.75 q -0.4,0 -0.9,-0.35 L 3.95,3.5 Q 3.55,3.05 3.25,2.5 3,2 3,1.65 v -42.1 h 22.5"
   id="path5181"
   inkscape:connector-curvature="0" />
</g>
<g
   id="PathID_112"
   transform="matrix(0.581618, 0.335948, -0.335948, 0.581618, 415.4, 144.7)"
   opacity="1">
</g>
<g
   id="PathID_113"
   transform="matrix(0.543316,0.394903,-0.394903,0.543316,433.6,155.25)"
   style="opacity:1;fill:#ffff00;fill-opacity:1">
<path
   style="fill:#ffff00;fill-opacity:1"
   d="M 20.1,-22.3 V -34.2 L 15,-40.45 H 29.4 V 4.65 H 20.1 V -13.6 H 17.7 L 9.5,-22.3 H 20.1 M 3.2,-34.2 -1.9,-40.45 h 14.45 v 16.4 h -7.1 l 7.1,7.5 V 4.65 H 3.2 V -34.2"
   id="path5185"
   inkscape:connector-curvature="0" />
</g>
<g
   id="PathID_114"
   transform="matrix(0.543316, 0.394903, -0.394903, 0.543316, 433.6, 155.25)"
   opacity="1">
</g>
<g
   id="PathID_115"
   transform="matrix(0.499061,0.449532,-0.449532,0.499061,451.2,168.15)"
   style="opacity:1;fill:#ffff00;fill-opacity:1">
<path
   style="fill:#ffff00;fill-opacity:1"
   d="m 3,-40.45 h 22.5 q 0.45,0 0.9,0.35 0.5,0.3 0.9,0.75 0.45,0.45 0.7,1 0.3,0.5 0.3,0.85 V 4.65 H 5.75 q -0.4,0 -0.9,-0.35 L 3.95,3.5 Q 3.55,3.05 3.25,2.5 3,2 3,1.65 v -42.1 m 9.3,36.4 h 6.65 v -27.7 H 12.3 v 27.7"
   id="path5189"
   inkscape:connector-curvature="0" />
</g>
<g
   id="PathID_116"
   transform="matrix(0.499061, 0.449532, -0.449532, 0.499061, 451.2, 168.15)"
   opacity="1">
</g>
<g
   id="PathID_117"
   transform="matrix(0.449338,0.499236,-0.499236,0.449338,466.7,182.35)"
   style="opacity:1;fill:#ffff00;fill-opacity:1">
<path
   style="fill:#ffff00;fill-opacity:1"
   d="m 3,-40.45 h 22.5 q 0.45,0 0.9,0.35 0.5,0.3 0.9,0.75 0.45,0.45 0.7,1 0.3,0.5 0.3,0.85 V 4.65 H 5.75 q -0.4,0 -0.9,-0.35 L 3.95,3.5 Q 3.55,3.05 3.25,2.5 3,2 3,1.65 v -42.1 m 9.3,36.4 h 6.65 v -27.7 H 12.3 v 27.7"
   id="path5193"
   inkscape:connector-curvature="0" />
</g>
<g
   id="PathID_118"
   transform="matrix(0.449338, 0.499236, -0.499236, 0.449338, 466.7, 182.35)"
   opacity="1">
</g>
<g
   id="PathID_119"
   transform="matrix(0.394693,0.543469,-0.543469,0.394693,480.7,198.1)"
   style="opacity:1;fill:#ffff00;fill-opacity:1">
<path
   style="fill:#ffff00;fill-opacity:1"
   d="m 12.55,-40.45 v 36.4 H 16.4 V -8.3 h 9.35 V 4.65 H 3.2 V -34.2 l -5.1,-6.25 h 14.45"
   id="path5197"
   inkscape:connector-curvature="0" />
</g>
<g
   id="PathID_120"
   transform="matrix(0.394693, 0.543469, -0.543469, 0.394693, 480.7, 198.1)"
   opacity="1">
</g>
<g
   id="PathID_121"
   transform="matrix(1.06669, 0, 0, 1.06669, 229.5, 324.3)"
   opacity="1">
<path
   style="fill:#010203;fill-opacity:0"
   d="M44.1 -25.9L44.4 25.9L0 51.1L-44.1 25.9L-44.4 -25.9L0 -51.1L44.1 -25.9"
   id="path5201" />
</g>
<g
   id="PathID_122"
   transform="matrix(1.06669,0,0,1.06669,229.5,324.3)"
   style="opacity:1;stroke:#008aff;stroke-opacity:1">
<path
   style="fill:none;stroke:#ffff00;stroke-width:3.9000001;stroke-linecap:round;stroke-linejoin:round;stroke-miterlimit:3;stroke-opacity:1"
   d="m 0,-51.1 -44.4,25.25 0.3,51.7 L 0,51.1 44.35,25.85 l -0.3,-51.7 z"
   id="path5204"
   inkscape:connector-curvature="0" />
</g>
<g
   id="PathID_123"
   transform="matrix(1.06669, 0, 0, 1.06669, 416.55, 318.7)"
   opacity="1">
<path
   style="fill:#010203;fill-opacity:0"
   d="M44.1 -25.9L44.4 25.9L0 51.1L-44.1 25.9L-44.4 -25.9L0 -51.1L44.1 -25.9"
   id="path5207" />
</g>
<g
   id="PathID_124"
   transform="matrix(1.06669,0,0,1.06669,416.55,322.7)"
   style="opacity:1;stroke:#008aff;stroke-opacity:1">
<path
   style="fill:none;stroke:#ffff00;stroke-width:3.9000001;stroke-linecap:round;stroke-linejoin:round;stroke-miterlimit:3;stroke-opacity:1"
   d="m 0,-51.1 -44.4,25.25 0.3,51.7 L 0,51.1 44.35,25.85 l -0.3,-51.7 z"
   id="path5210"
   inkscape:connector-curvature="0" />
</g>
<g
   id="PathID_125"
   transform="matrix(1.06669, 0, 0, 1.06669, 324.6, 231.15)"
   opacity="1">
<path
   style="fill:#010203;fill-opacity:0"
   d="M44.1 -25.9L44.4 25.9L0 51.1L-44.1 25.9L-44.4 -25.9L0 -51.1L44.1 -25.9"
   id="path5213" />
</g>
<g
   id="PathID_126"
   transform="matrix(1.06669,0,0,1.06669,324.6,233.15)"
   style="opacity:1;stroke:#008aff;stroke-opacity:1">
<path
   style="fill:none;stroke:#ffff00;stroke-width:3.9000001;stroke-linecap:round;stroke-linejoin:round;stroke-miterlimit:3;stroke-opacity:1"
   d="m 0,-51.05 -44.4,25.2 0.3,51.75 L 0,51.1 44.35,25.9 44.05,-25.85 Z"
   id="path5216"
   inkscape:connector-curvature="0" />
</g>
<g
   id="PathID_127"
   transform="matrix(0.452148,0,0,0.452148,192.7,291.3)"
   style="opacity:1;fill:#008aff;fill-opacity:1">
<path
   style="fill:#ffff00;fill-opacity:1"
   d="m 125.3,24.9 -2.2,-2.05 q -2.2,1.9 -5.25,2.6 -5.2,1.3 -9.75,-1.5 -4.55,-2.75 -5.8,-7.95 -0.75,-3.05 -0.1,-5.9 -10.7,-4 -22.25,-4 V 6.15 H 79.9 V 6.1 q -13,0 -24.9,5.05 -11.5,4.9 -20.45,13.75 -8.85,8.85 -13.7,20.4 -3.05,7.15 -4.2,14.7 2.75,0.85 5.05,3 3.9,3.65 4.1,9 0.15,5.3 -3.5,9.2 -2.15,2.3 -4.9,3.3 1.25,5.45 3.45,10.65 3.5,8.3 9.1,15.25 2.45,-1.55 5.6,-1.8 5.3,-0.45 9.35,3 4.1,3.45 4.55,8.8 0.25,3.15 -0.8,5.8 3.05,1.75 6.35,3.1 11.9,5.05 24.9,5.05 h 0.05 q 13,0 24.95,-5.05 4.9,-2.05 9.35,-4.85 -1.2,-2.65 -1.15,-5.85 0.2,-5.3 4.05,-9 3.85,-3.7 9.25,-3.5 3.1,0.05 5.7,1.5 4.1,-5.8 6.9,-12.45 5.05,-11.85 5.05,-24.9 0,-13.1 -5.05,-24.95 -4.85,-11.55 -13.7,-20.4 m 19.15,18.05 q 5.5,13.05 5.55,27.3 -0.05,14.25 -5.55,27.25 -3.2,7.5 -7.9,14.05 2.5,3.35 2.35,7.8 -0.15,5.3 -4,9 -3.9,3.7 -9.25,3.5 -4.4,-0.1 -7.65,-2.8 -5.15,3.3 -10.8,5.7 -13,5.5 -27.25,5.5 H 79.9 q -14.25,0 -27.25,-5.5 -3.9,-1.6 -7.45,-3.65 -3.15,2.85 -7.55,3.2 -5.25,0.45 -9.4,-3 -4.05,-3.45 -4.5,-8.8 -0.35,-4.4 1.95,-7.9 -6.4,-7.8 -10.35,-17.1 -2.5,-6 -3.9,-12.25 Q 7.25,84.8 4.05,81.8 0.2,78.1 0,72.8 q -0.2,-5.35 3.5,-9.25 3,-3.2 7.15,-3.85 1.3,-8.65 4.7,-16.75 Q 20.7,30.4 30.4,20.7 40.1,11.05 52.65,5.7 65.65,0.2 79.9,0.2 h 0.05 q 12.95,0 24.9,4.55 2.6,-3.3 6.9,-4.35 5.25,-1.25 9.8,1.5 4.55,2.8 5.8,8 1.05,4.3 -0.65,8.15 l 2.75,2.65 q 9.7,9.7 15,22.25 M 96.6,30.85 q -8,-3.4 -16.65,-3.4 H 79.9 q -8.65,0 -16.65,3.4 l -0.9,0.4 q 0.85,2.5 0.65,5.3 -0.4,5.3 -4.45,8.8 -4.1,3.45 -9.4,3.05 -2.8,-0.2 -5.1,-1.45 -2.05,3.15 -3.55,6.65 -3.35,7.9 -3.35,16.65 0,8.7 3.35,16.6 3.25,7.7 9.15,13.6 5.95,5.95 13.6,9.2 7.95,3.4 16.65,3.4 V 113 h 0.05 v 0.05 q 8.7,0 16.65,-3.4 7.65,-3.25 13.6,-9.2 5.9,-5.9 9.15,-13.6 L 121,82.3 q -2.45,-0.95 -4.45,-2.95 -3.8,-3.8 -3.8,-9.1 0,-5.35 3.8,-9.15 2,-2 4.45,-2.9 l -1.65,-4.6 Q 116.1,45.9 110.2,40 104.25,34.05 96.6,30.85 m -1.95,5.1 q 4.9,2.15 6.9,7.1 2,4.95 -0.1,9.9 l -0.1,0.25 q 2.3,2.9 3.75,6.35 2.15,5.1 2.15,10.7 0,5.55 -2.15,10.65 -1.6,3.8 -4.25,7 l 0.1,0.25 q 1.95,4.95 -0.15,9.85 -2.15,4.9 -7.1,6.9 -4.95,1.95 -9.9,-0.15 -4.85,-2.15 -6.85,-7.1 l -0.1,-0.25 q -3.9,-0.45 -7.55,-2 -3.7,-1.5 -6.7,-3.95 l -0.25,0.05 q -4.95,2.05 -9.85,0 -5,-2 -7,-6.95 -2.05,-4.9 0,-9.9 2,-4.9 6.95,-7 L 52.7,67.6 q 0.4,-4.15 2,-8.05 2.1,-4.85 5.9,-8.65 3.75,-3.8 8.7,-5.85 4,-1.7 8.35,-2.05 l 0.05,-0.25 q 2.1,-4.95 7.1,-6.9 4.95,-2 9.85,0.1 m 19.7,-0.15 q 6.75,6.7 10.45,15.45 1.25,3.05 2.1,6.15 4.55,0.4 7.85,3.7 3.8,3.8 3.8,9.15 0,5.3 -3.8,9.1 -3.3,3.35 -7.85,3.75 -0.85,3.1 -2.1,6.1 -3.7,8.75 -10.45,15.45 -6.75,6.75 -15.5,10.45 -9,3.85 -18.9,3.85 H 79.9 q -9.9,0 -18.9,-3.85 -8.75,-3.7 -15.5,-10.45 -6.75,-6.7 -10.45,-15.45 -3.8,-9.05 -3.8,-18.95 0,-9.9 3.8,-19 1.9,-4.4 4.55,-8.3 -2.7,-3.7 -2.35,-8.4 0.4,-5.35 4.5,-8.85 4.05,-3.45 9.4,-3.05 4.65,0.4 7.95,3.6 L 61,25.4 q 9,-3.85 18.9,-3.85 h 0.05 q 9.9,0 18.9,3.85 8.75,3.7 15.5,10.4 m -29.9,23.9 q -4.9,-2.1 -6.85,-7.1 -0.75,-1.8 -0.9,-3.55 -2.65,0.4 -5.1,1.45 -3.85,1.6 -6.85,4.6 -2.95,2.95 -4.6,6.8 -0.95,2.35 -1.35,4.85 1.75,0.2 3.55,0.9 4.95,2.1 7,7 2,4.95 0,9.85 -0.75,1.8 -1.85,3.2 1.9,1.35 4.1,2.3 2.2,0.95 4.5,1.35 0.25,-1.8 1,-3.55 2.1,-4.9 7.1,-6.85 4.95,-2 9.85,0.1 l 3.15,1.9 q 1.45,-2 2.5,-4.4 1.65,-3.95 1.65,-8.3 0,-4.35 -1.65,-8.35 -0.85,-2.05 -2.15,-3.9 -1.4,1.1 -3.2,1.8 -4.95,2 -9.9,-0.1"
   id="path5219"
   inkscape:connector-curvature="0" />
</g>
<g
   id="PathID_128"
   transform="matrix(0.452148, 0, 0, 0.452148, 194.7, 289.3)"
   opacity="1">
</g>
<g
   id="PathID_129"
   transform="matrix(-0.427478,3.73713e-8,0,0.427478,443.95,285.7)"
   style="opacity:1;fill:#008aff;fill-opacity:1">
<path
   style="fill:#ffff00;fill-opacity:1"
   d="m 83.5,4.15 q 0,1.8 -1.3,3.05 -1.1,1.3 -2.9,1.3 h -2.4 v 27.1 q 19.9,5.25 32.7,21.6 12.95,16.7 12.95,37.7 0,17.95 -9.45,32.85 -9.25,14.7 -24.8,22.25 h -54 Q 18.75,142.45 9.45,127.75 0,112.85 0,94.9 0,73.9 13,57.2 25.8,40.85 45.7,35.6 V 8.5 H 43.45 Q 41.65,8.5 40.4,7.2 39.1,5.95 39.1,4.15 39.1,2.4 40.4,1.3 41.65,0 43.45,0 H 79.3 q 1.8,0 2.9,1.3 1.3,1.25 1.3,2.85 M 9,77.75 q -1.3,4.3 -2.1,8.45 0.7,-4.4 2.5,-8.5 1.05,-0.75 14.95,-1.25 15.7,-0.65 37.05,-0.65 21.1,0 37,0.65 15.2,0.5 15.05,1.3 0.85,1.55 1.25,3.2 l -1.1,-3.2 h -0.15 q -2.9,-9.7 -9.8,-17.95 Q 91.15,44.7 72.1,41.05 V 8.5 H 50.5 V 41.05 Q 31.4,44.7 18.95,59.8 12.15,68.05 9.4,77.7 L 9,77.75"
   id="path5223"
   inkscape:connector-curvature="0" />
</g>
<g
   id="PathID_130"
   transform="matrix(-0.427478, 3.73713e-008, 0, 0.427478, 443.95, 283.7)"
   opacity="1">
</g>
<g
   id="PathID_131"
   transform="matrix(-0.444989,-3.89021e-8,0,0.444989,346.95,198.2)"
   style="opacity:1;fill:#008aff;fill-opacity:1">
<path
   style="fill:#ffff00;fill-opacity:1"
   d="m 94.95,27.85 -23.55,50.8 -3.95,3.4 -4.8,8.5 -6.85,-0.6 -0.1,0.05 -4.9,-4.9 3.4,-9.2 v -5.2 l 23.55,-50.8 4,-2.75 L 91.55,0 96.9,0.9 V 0.85 l 0.15,0.05 4.15,3.55 -6.75,18.55 0.5,4.85 M 45.7,44.55 Q 38.1,44.6 31.55,47.4 25,50.2 20,55.2 q -5,4.95 -7.75,11.5 -2.8,6.6 -2.9,14.15 0.1,7.55 2.85,14.1 1.45,3.35 3.5,6.35 H 90 v 6.75 h -7.7 q -2.65,3.55 -5.95,6.55 -6.1,5.65 -13.95,8.7 l -3.95,1.35 v 5.75 L 29.4,130.1 v -6.45 h 0.35 l -1.9,-0.7 q -8.2,-3.55 -14.5,-9.8 Q 7.1,106.9 3.6,98.6 0.05,90.35 0,80.85 0.05,71.3 3.6,63.05 q 3.5,-8.2 9.75,-14.5 6.3,-6.25 14.55,-9.75 8.25,-3.55 17.8,-3.6 11.05,0.1 20.4,4.85 l -4.25,8.2 q -3.7,-1.8 -7.8,-2.7 -4.1,-1 -8.35,-1 M 74.35,33.5 69,44.4 63.65,55.65 59.5,65.2 q -1.6,4.05 -1.75,5.5 l 1.65,-3.25 4.15,-8.15 5.35,-10.9 5.35,-11.3 4.1,-9.5 q 1.6,-4.05 1.65,-5.45 l -1.65,3.2 -4,8.15 M 62.7,112.9 q 3.8,-2.1 6.9,-4.85 H 21.7 q 4.3,3.85 9.85,6.25 6.55,2.75 14.15,2.8 9.3,-0.05 17,-4.2 M 7.55,147.6 H 27.3 l -1.7,-0.2 -4.65,-0.95 q -2.75,-0.75 -5.15,-2.35 -2.4,-1.5 -3.35,-4.1 -0.9,-2.35 0.3,-5.65 l -5.2,13.25 m 4.1,-15.65 H 74.7 L 82.65,150 H 4 l 7.65,-18.05"
   id="path5227"
   inkscape:connector-curvature="0" />
</g>
<g
   id="PathID_132"
   transform="matrix(-0.444989, -3.89021e-008, 0, 0.444989, 346.95, 196.2)"
   opacity="1">
</g>
<g
   id="PathID_133"
   transform="matrix(-0.137049,-0.448268,0.448268,-0.137049,166.4,379.7)"
   style="opacity:1;fill:#ffffff">
<path
   style="fill:#ffffff;fill-opacity:1"
   d="m 25.5,-40.45 q 0.45,0 0.9,0.35 0.5,0.3 0.9,0.75 0.45,0.45 0.7,1 0.3,0.5 0.3,0.85 v 16.95 l -9.35,-6.2 v -5 H 12.3 v 27.7 h 6.65 v -9.35 l 9.35,6.25 V 4.65 H 5.75 q -0.4,0 -0.9,-0.35 L 3.95,3.5 Q 3.55,3.05 3.25,2.5 3,2 3,1.65 v -42.1 h 22.5"
   id="path5231"
   inkscape:connector-curvature="0" />
</g>
<g
   id="PathID_134"
   transform="matrix(-0.137049, -0.448268, 0.448268, -0.137049, 166.4, 379.7)"
   opacity="1">
</g>
<g
   id="PathID_135"
   transform="matrix(-0.0974586,-0.458507,0.458507,-0.0974586,162.05,365.7)"
   style="opacity:1;fill:#ffffff">
<path
   style="fill:#ffffff;fill-opacity:1"
   d="M 20.1,-22.3 V -34.2 L 15,-40.45 H 29.4 V 4.65 H 20.1 V -13.6 H 17.7 L 9.5,-22.3 H 20.1 M 3.2,-34.2 -1.9,-40.45 h 14.45 v 16.4 h -7.1 l 7.1,7.5 V 4.65 H 3.2 V -34.2"
   id="path5235"
   inkscape:connector-curvature="0" />
</g>
<g
   id="PathID_136"
   transform="matrix(-0.0974586, -0.458507, 0.458507, -0.0974586, 162.05, 365.7)"
   opacity="1">
</g>
<g
   id="PathID_137"
   transform="matrix(-0.0489977,-0.466182,0.466182,-0.0489977,158.85,350.85)"
   style="opacity:1;fill:#ffffff">
<path
   style="fill:#ffffff;fill-opacity:1"
   d="m 9.3,-40.45 h 15.5 l 7.75,45.1 H 22.4 L 21.55,0.3 11.6,-10.55 h 8.5 l -2.7,-17.1 -0.4,-1.3 -2.6,16.7 H 7.55 L 13.45,-5.6 11.7,4.65 H 1.55 l 7.75,-45.1"
   id="path5239"
   inkscape:connector-curvature="0" />
</g>
<g
   id="PathID_138"
   transform="matrix(-0.0489977, -0.466182, 0.466182, -0.0489977, 158.85, 350.85)"
   opacity="1">
</g>
<g
   id="PathID_139"
   transform="matrix(-0.00818085,-0.468679,0.468679,-0.00818085,156.95,334.95)"
   style="opacity:1;fill:#ffffff">
<path
   style="fill:#ffffff;fill-opacity:1"
   d="m 19.9,-19.8 v -11.95 h -7.35 v 13.7 l -2.25,2.15 2.25,5.5 V 4.65 H 3.2 V -34.2 l -5.1,-6.25 h 28.4 q 0.4,0 0.9,0.35 0.5,0.3 0.9,0.75 0.4,0.45 0.65,1 0.3,0.5 0.3,0.85 v 23.2 l -4.4,3.05 5.9,15.65 -8.25,5.2 -9.7,-24.55 7.1,-4.85"
   id="path5243"
   inkscape:connector-curvature="0" />
</g>
<g
   id="PathID_140"
   transform="matrix(-0.00818085, -0.468679, 0.468679, -0.00818085, 156.95, 334.95)"
   opacity="1">
</g>
<g
   id="PathID_141"
   transform="matrix(0.0326983,-0.467608,0.467608,0.0326983,156.6,319.85)"
   style="opacity:1;fill:#ffffff">
<path
   style="fill:#ffffff;fill-opacity:1"
   d="m 9.3,-40.45 h 15.5 l 7.75,45.1 H 22.4 L 21.55,0.3 11.6,-10.55 h 8.5 l -2.7,-17.1 -0.4,-1.3 -2.6,16.7 H 7.55 L 13.45,-5.6 11.7,4.65 H 1.55 l 7.75,-45.1"
   id="path5247"
   inkscape:connector-curvature="0" />
</g>
<g
   id="PathID_142"
   transform="matrix(0.0326983, -0.467608, 0.467608, 0.0326983, 156.6, 319.85)"
   opacity="1">
</g>
<g
   id="PathID_143"
   transform="matrix(0.0813975,-0.461629,0.461629,0.0813975,157.65,304.2)"
   style="opacity:1;fill:#ffffff">
<path
   style="fill:#ffffff;fill-opacity:1"
   d="m 25.5,-40.45 q 0.45,0 0.9,0.35 0.5,0.3 0.9,0.75 0.45,0.45 0.7,1 0.3,0.5 0.3,0.85 v 16.95 l -9.35,-6.2 v -5 H 12.3 v 27.7 h 6.65 v -9.35 l 9.35,6.25 V 4.65 H 5.75 q -0.4,0 -0.9,-0.35 L 3.95,3.5 Q 3.55,3.05 3.25,2.5 3,2 3,1.65 v -42.1 h 22.5"
   id="path5251"
   inkscape:connector-curvature="0" />
</g>
<g
   id="PathID_144"
   transform="matrix(0.0813975, -0.461629, 0.461629, 0.0813975, 157.65, 304.2)"
   opacity="1">
</g>
<g
   id="PathID_145"
   transform="matrix(0.121321,-0.452778,0.452778,0.121321,160,289.75)"
   style="opacity:1;fill:#ffffff">
<path
   style="fill:#ffffff;fill-opacity:1"
   d="m 21.5,-27.55 v -4.2 H 19.1 V 4.65 H 9.75 v -36.4 h -4.4 l -7.2,-8.7 h 32.7 v 12.9 H 21.5"
   id="path5255"
   inkscape:connector-curvature="0" />
</g>
<g
   id="PathID_146"
   transform="matrix(0.121321, -0.452778, 0.452778, 0.121321, 160, 289.75)"
   opacity="1">
</g>
<g
   id="PathID_147"
   transform="matrix(0.160322,-0.440481,0.440481,0.160322,163.95,274.35)"
   style="opacity:1;fill:#ffffff">
<path
   style="fill:#ffffff;fill-opacity:1"
   d="M 25.75,-27.55 H 16.4 v -4.2 h -3.85 v 9.2 h 12 l -8.2,8.7 h -3.8 v 9.8 H 16.4 V -8.3 h 9.35 V 4.65 H 3.2 V -34.2 l -5.1,-6.25 h 27.65 v 12.9"
   id="path5259"
   inkscape:connector-curvature="0" />
</g>
<g
   id="PathID_148"
   transform="matrix(0.160322, -0.440481, 0.440481, 0.160322, 163.95, 274.35)"
   opacity="1">
</g>
<g
   id="PathID_149"
   transform="matrix(0.198102,-0.424832,0.424832,0.198102,168.4,261.6)"
   style="opacity:1;fill:#ffffff">
<path
   style="fill:#ffffff;fill-opacity:1"
   d="m 19.9,-19.8 v -11.95 h -7.35 v 13.7 l -2.25,2.15 2.25,5.5 V 4.65 H 3.2 V -34.2 l -5.1,-6.25 h 28.4 q 0.4,0 0.9,0.35 0.5,0.3 0.9,0.75 0.4,0.45 0.65,1 0.3,0.5 0.3,0.85 v 23.2 l -4.4,3.05 5.9,15.65 -8.25,5.2 -9.7,-24.55 7.1,-4.85"
   id="path5263"
   inkscape:connector-curvature="0" />
</g>
<g
   id="PathID_150"
   transform="matrix(0.198102, -0.424832, 0.424832, 0.198102, 168.4, 261.6)"
   opacity="1">
</g>
<g
   id="PathID_151"
   transform="matrix(0.36938,-0.288591,0.288591,0.36938,214.15,197.35)"
   style="opacity:1;fill:#ffffff">
<path
   style="fill:#ffffff;fill-opacity:1"
   d="m 25.75,-40.45 q 0.4,0 0.85,0.35 0.5,0.3 0.9,0.75 0.45,0.45 0.7,1 0.3,0.5 0.3,0.85 V 1.65 q 0,0.35 -0.3,0.85 -0.25,0.55 -0.7,1 -0.4,0.45 -0.9,0.8 -0.45,0.35 -0.85,0.35 H 3.2 V -34.2 l -5.1,-6.25 h 27.65 m -13.2,8.7 v 27.7 h 6.65 v -27.7 h -6.65"
   id="path5267"
   inkscape:connector-curvature="0" />
</g>
<g
   id="PathID_152"
   transform="matrix(0.36938, -0.288591, 0.288591, 0.36938, 214.15, 197.35)"
   opacity="1">
</g>
<g
   id="PathID_153"
   transform="matrix(0.388611,-0.262122,0.262122,0.388611,225.75,188.15)"
   style="opacity:1;fill:#ffffff">
<path
   style="fill:#ffffff;fill-opacity:1"
   d="M 12.55,-40.45 V 4.65 H 3.2 V -34.2 l -5.1,-6.25 h 14.45"
   id="path5271"
   inkscape:connector-curvature="0" />
</g>
<g
   id="PathID_154"
   transform="matrix(0.388611, -0.262122, 0.262122, 0.388611, 225.75, 188.15)"
   opacity="1">
</g>
<g
   id="PathID_155"
   transform="matrix(0.405949,-0.234375,0.234375,0.405949,231.7,184.05)"
   style="opacity:1;fill:#ffffff">
<path
   style="fill:#ffffff;fill-opacity:1"
   d="m 5.75,4.65 q -0.4,0 -0.9,-0.35 L 3.95,3.5 Q 3.55,3.05 3.25,2.5 3,2 3,1.65 V -15 l 9.3,6.15 v 4.8 h 6.65 v -5.8 L 3,-21.6 v -18.85 h 22.6 q 0.4,0 0.85,0.35 0.5,0.3 0.9,0.75 0.45,0.45 0.7,1 0.3,0.5 0.3,0.85 v 15.6 l -9.4,-6.2 v -3.65 H 12.4 v 4.3 l 15.95,11.7 V 4.65 H 5.75"
   id="path5275"
   inkscape:connector-curvature="0" />
</g>
<g
   id="PathID_156"
   transform="matrix(0.405949, -0.234375, 0.234375, 0.405949, 231.7, 184.05)"
   opacity="1">
</g>
<g
   id="PathID_157"
   transform="matrix(0.424832,-0.198102,0.198102,0.424832,244.35,176.55)"
   style="opacity:1;fill:#ffffff">
<path
   style="fill:#ffffff;fill-opacity:1"
   d="m 25.5,-40.45 q 0.45,0 0.9,0.35 0.5,0.3 0.9,0.75 0.45,0.45 0.7,1 0.3,0.5 0.3,0.85 v 16.95 l -9.35,-6.2 v -5 H 12.3 v 27.7 h 6.65 v -9.35 l 9.35,6.25 V 4.65 H 5.75 q -0.4,0 -0.9,-0.35 L 3.95,3.5 Q 3.55,3.05 3.25,2.5 3,2 3,1.65 v -42.1 h 22.5"
   id="path5279"
   inkscape:connector-curvature="0" />
</g>
<g
   id="PathID_158"
   transform="matrix(0.424832, -0.198102, 0.198102, 0.424832, 244.35, 176.55)"
   opacity="1">
</g>
<g
   id="PathID_159"
   transform="matrix(0.437616,-0.167985,0.167985,0.437616,257.55,170.2)"
   style="opacity:1;fill:#ffffff">
<path
   style="fill:#ffffff;fill-opacity:1"
   d="M 12.55,-40.45 V 4.65 H 3.2 V -34.2 l -5.1,-6.25 h 14.45"
   id="path5283"
   inkscape:connector-curvature="0" />
</g>
<g
   id="PathID_160"
   transform="matrix(0.437616, -0.167985, 0.167985, 0.437616, 257.55, 170.2)"
   opacity="1">
</g>
<g
   id="PathID_161"
   transform="matrix(0.445808,-0.144852,0.144852,0.445808,264.25,167.45)"
   style="opacity:1;fill:#ffffff">
<path
   style="fill:#ffffff;fill-opacity:1"
   d="m 19.9,-19.8 v -11.95 h -7.35 v 13.7 l -2.25,2.15 2.25,5.5 V 4.65 H 3.2 V -34.2 l -5.1,-6.25 h 28.4 q 0.4,0 0.9,0.35 0.5,0.3 0.9,0.75 0.4,0.45 0.65,1 0.3,0.5 0.3,0.85 v 23.2 l -12.7,8.6 -3.75,-9.25 7.1,-4.85"
   id="path5287"
   inkscape:connector-curvature="0" />
</g>
<g
   id="PathID_162"
   transform="matrix(0.445808, -0.144852, 0.144852, 0.445808, 264.25, 167.45)"
   opacity="1">
</g>
<g
   id="PathID_163"
   transform="matrix(0.456736,-0.105446,0.105446,0.456736,278.6,162.8)"
   style="opacity:1;fill:#ffffff">
<path
   style="fill:#ffffff;fill-opacity:1"
   d="m 12.55,-40.45 v 36.4 H 16.4 V -8.3 h 9.35 V 4.65 H 3.2 V -34.2 l -5.1,-6.25 h 14.45"
   id="path5291"
   inkscape:connector-curvature="0" />
</g>
<g
   id="PathID_164"
   transform="matrix(0.456736, -0.105446, 0.105446, 0.456736, 278.6, 162.8)"
   opacity="1">
</g>
<g
   id="PathID_165"
   transform="matrix(0.462979,-0.0733287,0.0733287,0.462979,291.75,159.7)"
   style="opacity:1;fill:#ffffff">
<path
   style="fill:#ffffff;fill-opacity:1"
   d="M 12.55,-40.45 V 4.65 H 3.2 V -34.2 l -5.1,-6.25 h 14.45"
   id="path5295"
   inkscape:connector-curvature="0" />
</g>
<g
   id="PathID_166"
   transform="matrix(0.462979, -0.0733287, 0.0733287, 0.462979, 291.75, 159.7)"
   opacity="1">
</g>
<g
   id="PathID_167"
   transform="matrix(0.466966,-0.0408543,0.0408543,0.466966,298.9,158.5)"
   style="opacity:1;fill:#ffffff">
<path
   style="fill:#ffffff;fill-opacity:1"
   d="M 12.55,4.65 H 3.2 V -34.2 l -5.1,-6.25 h 14 l 8,18.15 v -18.15 h 9.3 V 4.1 l -4.45,4.85 -12.4,-26.3 v 22"
   id="path5299"
   inkscape:connector-curvature="0" />
</g>
<g
   id="PathID_168"
   transform="matrix(0.466966, -0.0408543, 0.0408543, 0.466966, 298.9, 158.5)"
   opacity="1">
</g>
<g
   id="PathID_169"
   transform="matrix(0.46875,0,0,0.46875,314.05,156.95)"
   style="opacity:1;fill:#ffffff">
<path
   style="fill:#ffffff;fill-opacity:1"
   d="M 25.75,-27.55 H 16.4 v -4.2 h -3.85 v 9.2 h 12 l -8.2,8.7 h -3.8 v 9.8 H 16.4 V -8.3 h 9.35 V 4.65 H 3.2 V -34.2 l -5.1,-6.25 h 27.65 v 12.9"
   id="path5303"
   inkscape:connector-curvature="0" />
</g>
<g
   id="PathID_170"
   transform="matrix(0.46875, 0, 0, 0.46875, 314.05, 156.95)"
   opacity="1">
</g>
<g
   id="PathID_171"
   transform="matrix(0.42131,0.205486,-0.205486,0.42131,390.1,170.75)"
   style="opacity:1;fill:#ffffff">
<path
   style="fill:#ffffff;fill-opacity:1"
   d="m 12.25,-40.45 v 36.4 h 6.6 v -36.4 h 9.4 V 4.65 H 5.7 Q 5.3,4.65 4.8,4.3 L 3.9,3.5 Q 3.5,3.05 3.2,2.5 2.95,2 2.95,1.65 V -34.2 l -5.15,-6.25 h 14.45"
   id="path5307"
   inkscape:connector-curvature="0" />
</g>
<g
   id="PathID_172"
   transform="matrix(0.42131, 0.205486, -0.205486, 0.42131, 390.1, 170.75)"
   opacity="1">
</g>
<g
   id="PathID_173"
   transform="matrix(0.401797,0.241424,-0.241424,0.401797,403.2,177.2)"
   style="opacity:1;fill:#ffffff">
<path
   style="fill:#ffffff;fill-opacity:1"
   d="M 12.55,4.65 H 3.2 V -34.2 l -5.1,-6.25 h 14 l 8,18.15 v -18.15 h 9.3 V 4.1 l -4.45,4.85 -12.4,-26.3 v 22"
   id="path5311"
   inkscape:connector-curvature="0" />
</g>
<g
   id="PathID_174"
   transform="matrix(0.401797, 0.241424, -0.241424, 0.401797, 403.2, 177.2)"
   opacity="1">
</g>
<g
   id="PathID_175"
   transform="matrix(0.383978,0.268864,-0.268864,0.383978,416.2,185.1)"
   style="opacity:1;fill:#ffffff">
<path
   style="fill:#ffffff;fill-opacity:1"
   d="M 12.55,-40.45 V 4.65 H 3.2 V -34.2 l -5.1,-6.25 h 14.45"
   id="path5315"
   inkscape:connector-curvature="0" />
</g>
<g
   id="PathID_176"
   transform="matrix(0.383978, 0.268864, -0.268864, 0.383978, 416.2, 185.1)"
   opacity="1">
</g>
<g
   id="PathID_177"
   transform="matrix(0.364287,0.294994,-0.294994,0.364287,422.1,189.25)"
   style="opacity:1;fill:#ffffff">
<path
   style="fill:#ffffff;fill-opacity:1"
   d="m 21.5,-27.55 v -4.2 H 19.1 V 4.65 H 9.75 v -36.4 h -4.4 l -7.2,-8.7 h 32.7 v 12.9 H 21.5"
   id="path5319"
   inkscape:connector-curvature="0" />
</g>
<g
   id="PathID_178"
   transform="matrix(0.364287, 0.294994, -0.294994, 0.364287, 422.1, 189.25)"
   opacity="1">
</g>
<g
   id="PathID_179"
   transform="matrix(0.337191,0.325621,-0.325621,0.337191,434.45,199.3)"
   style="opacity:1;fill:#ffffff">
<path
   style="fill:#ffffff;fill-opacity:1"
   d="m -2.2,-40.45 h 14.45 v 26 h 6.6 v -26 h 9.4 V -5.7 h -8 V 4.65 h -9.3 V -5.7 H 5.7 q -0.4,0 -0.9,-0.35 l -0.9,-0.8 -0.7,-1 Q 2.95,-8.35 2.95,-8.75 V -34.2 l -5.15,-6.25"
   id="path5323"
   inkscape:connector-curvature="0" />
</g>
<g
   id="PathID_180"
   transform="matrix(0.337191, 0.325621, -0.325621, 0.337191, 434.45, 199.3)"
   opacity="1">
</g>
<g
   id="PathID_181"
   transform="matrix(0.167985,0.437616,-0.437616,0.167985,476.4,257.9)"
   style="opacity:1;fill:#ffffff">
<path
   style="fill:#ffffff;fill-opacity:1"
   d="M 25.75,-27.55 H 16.4 v -4.2 h -3.85 v 9.2 h 12 l -8.2,8.7 h -3.8 v 9.8 H 16.4 V -8.3 h 9.35 V 4.65 H 3.2 V -34.2 l -5.1,-6.25 h 27.65 v 12.9"
   id="path5327"
   inkscape:connector-curvature="0" />
</g>
<g
   id="PathID_182"
   transform="matrix(0.167985, 0.437616, -0.437616, 0.167985, 476.4, 257.9)"
   opacity="1">
</g>
<g
   id="g1147"><g
     style="opacity:1;fill:#ffffff"
     transform="matrix(0.129205,0.450591,-0.450591,0.129205,481.2,270.55)"
     id="PathID_183">
<path
   inkscape:connector-curvature="0"
   id="path5331"
   d="m 25.75,-40.45 q 0.4,0 0.85,0.35 0.5,0.3 0.9,0.75 0.45,0.45 0.7,1 0.3,0.5 0.3,0.85 V 1.65 q 0,0.35 -0.3,0.85 -0.25,0.55 -0.7,1 -0.4,0.45 -0.9,0.8 -0.45,0.35 -0.85,0.35 H 3.2 V -34.2 l -5.1,-6.25 h 27.65 m -13.2,8.7 v 27.7 h 6.65 v -27.7 h -6.65"
   style="fill:#ffffff;fill-opacity:1" />
</g></g>
<g
   id="PathID_184"
   transform="matrix(0.129205, 0.450591, -0.450591, 0.129205, 481.2, 270.55)"
   opacity="1">
</g>
<g
   id="PathID_185"
   transform="matrix(0.0894417,0.460138,-0.460138,0.0894417,485.25,284.75)"
   style="opacity:1">
<path
   style="fill:#ffffff;fill-opacity:1"
   d="m 12.25,-40.45 v 36.4 h 6.6 v -36.4 h 9.4 V 4.65 H 5.7 Q 5.3,4.65 4.8,4.3 L 3.9,3.5 Q 3.5,3.05 3.2,2.5 2.95,2 2.95,1.65 V -34.2 l -5.15,-6.25 h 14.45"
   id="path5335"
   inkscape:connector-curvature="0" />
</g>
<g
   id="PathID_186"
   transform="matrix(0.0894417, 0.460138, -0.460138, 0.0894417, 485.25, 284.75)"
   opacity="1">
</g>
<g
   id="PathID_187"
   transform="matrix(0.0489977,0.466182,-0.466182,0.0489977,488,299.1)"
   style="opacity:1;fill:#ffffff">
<path
   style="fill:#ffffff;fill-opacity:1"
   d="m 25.5,-40.45 q 0.45,0 0.9,0.35 0.5,0.3 0.9,0.75 0.45,0.45 0.7,1 0.3,0.5 0.3,0.85 v 16.95 l -9.35,-6.2 v -5 H 12.3 v 27.7 h 6.65 v -9.35 l 9.35,6.25 V 4.65 H 5.75 q -0.4,0 -0.9,-0.35 L 3.95,3.5 Q 3.55,3.05 3.25,2.5 3,2 3,1.65 v -42.1 h 22.5"
   id="path5339"
   inkscape:connector-curvature="0" />
</g>
<g
   id="PathID_188"
   transform="matrix(0.0489977, 0.466182, -0.466182, 0.0489977, 488, 299.1)"
   opacity="1">
</g>
<g
   id="PathID_189"
   transform="matrix(0.0081808,0.468679,-0.468679,0.0081808,489.5,313.65)"
   style="opacity:1;fill:#ffffff">
<path
   style="fill:#ffffff;fill-opacity:1"
   d="m 9.3,-40.45 h 15.5 l 7.75,45.1 H 22.4 L 21.55,0.3 11.6,-10.55 h 8.5 l -2.7,-17.1 -0.4,-1.3 -2.6,16.7 H 7.55 L 13.45,-5.6 11.7,4.65 H 1.55 l 7.75,-45.1"
   id="path5343"
   inkscape:connector-curvature="0" />
</g>
<g
   id="PathID_190"
   transform="matrix(0.0081808, 0.468679, -0.468679, 0.0081808, 489.5, 313.65)"
   opacity="1">
</g>
<g
   id="PathID_191"
   transform="matrix(-0.0326983,0.467608,-0.467608,-0.0326983,489.7,327.95)"
   style="opacity:1;fill:#ffffff">
<path
   style="fill:#ffffff;fill-opacity:1"
   d="m 21.5,-27.55 v -4.2 H 19.1 V 4.65 H 9.75 v -36.4 h -4.4 l -7.2,-8.7 h 32.7 v 12.9 H 21.5"
   id="path5347"
   inkscape:connector-curvature="0" />
</g>
<g
   id="PathID_192"
   transform="matrix(-0.0326983, 0.467608, -0.467608, -0.0326983, 489.7, 327.95)"
   opacity="1">
</g>
<g
   id="PathID_193"
   transform="matrix(-0.0652374,0.464188,-0.464188,-0.0652374,488.5,343.85)"
   style="opacity:1;fill:#ffffff">
<path
   style="fill:#ffffff;fill-opacity:1"
   d="M 12.55,-40.45 V 4.65 H 3.2 V -34.2 l -5.1,-6.25 h 14.45"
   id="path5351"
   inkscape:connector-curvature="0" />
</g>
<g
   id="PathID_194"
   transform="matrix(-0.0652374, 0.464188, -0.464188, -0.0652374, 488.5, 343.85)"
   opacity="1">
</g>
<g
   id="PathID_195"
   transform="matrix(-0.0974586,0.458507,-0.458507,-0.0974586,487.45,351)"
   style="opacity:1;fill:#ffffff">
<path
   style="fill:#ffffff;fill-opacity:1"
   d="m 3,-40.45 h 22.5 q 0.45,0 0.9,0.35 0.5,0.3 0.9,0.75 0.45,0.45 0.7,1 0.3,0.5 0.3,0.85 V 4.65 H 5.75 q -0.4,0 -0.9,-0.35 L 3.95,3.5 Q 3.55,3.05 3.25,2.5 3,2 3,1.65 v -42.1 m 9.3,36.4 h 6.65 v -27.7 H 12.3 v 27.7"
   id="path5355"
   inkscape:connector-curvature="0" />
</g>
<g
   id="PathID_196"
   transform="matrix(-0.0974586, 0.458507, -0.458507, -0.0974586, 487.45, 351)"
   opacity="1">
</g>
<g
   id="PathID_197"
   transform="matrix(-0.137049,0.448268,-0.448268,-0.137049,484.4,365.3)"
   style="opacity:1;fill:#ffffff">
<path
   style="fill:#ffffff;fill-opacity:1"
   d="M 12.55,4.65 H 3.2 V -34.2 l -5.1,-6.25 h 14 l 8,18.15 v -18.15 h 9.3 V 4.1 l -4.45,4.85 -12.4,-26.3 v 22"
   id="path5359"
   inkscape:connector-curvature="0" />
</g>
<g
   id="PathID_198"
   transform="matrix(-0.137049, 0.448268, -0.448268, -0.137049, 484.4, 365.3)"
   opacity="1">
</g>
<g
   id="PathID_199"
   transform="matrix(1.06669, 0, 0, 1.06669, 324.6, 415.35)"
   opacity="1">
<path
   style="fill:#010203;fill-opacity:0"
   d="M44.1 -25.9L44.4 25.9L0 51.1L-44.1 25.9L-44.4 -25.9L0 -51.1L44.1 -25.9"
   id="path5363" />
</g>
<g
   id="PathID_200"
   transform="matrix(1.06669,0,0,1.06669,324.6,415.35)"
   style="opacity:1;stroke:#008aff;stroke-opacity:1">
<path
   style="fill:none;stroke:#ffff00;stroke-width:3.9000001;stroke-linecap:round;stroke-linejoin:round;stroke-miterlimit:3;stroke-opacity:1"
   d="M 0,-51.1 -44.4,-25.85 -44.1,25.9 0,51.1 44.35,25.9 44.05,-25.85 Z"
   id="path5366"
   inkscape:connector-curvature="0" />
</g>
<g
   id="PathID_201"
   transform="matrix(0.395777,0,0,0.395777,294.95,383.8)"
   style="opacity:1;fill:#008aff;fill-opacity:1">
<path
   style="fill:#ffff00;fill-opacity:1"
   d="m 135.9,5.45 v 75.9 q 0.3,5.15 -4.25,5.15 H 19.15 q -5.05,0 -5.05,-4.7 V 4.7 q 0,-2 1.4,-3.35 Q 16.65,0 18.5,0 h 112.6 q 1.95,0 3.45,1.75 1.35,1.7 1.35,3.7 m -8.95,0.8 H 23.7 q -2.8,0 -2.45,2.85 v 68.25 q 0,0.8 0.6,1.65 0.75,1.15 1.7,1.15 h 103.4 q 2.3,0.15 2.55,-3.05 L 129.45,7.75 q -0.65,-2 -2.5,-1.5 M 99.15,92.1 h -3.5 q -0.75,0 -1.4,0.5 -0.45,0.3 -0.45,1.05 v 0.95 l 0.3,0.7 h 0.35 3.5 l 1.35,-0.45 q 0.55,-0.4 0.4,-1.05 V 92.75 L 99.6,92.1 h -0.45 m 10.6,0 h -3.5 q -0.7,0 -1.35,0.5 -0.5,0.3 -0.5,1.05 l 0.2,0.95 0.3,0.7 h 3.85 q 0.85,0 1.35,-0.45 0.55,-0.4 0.3,-1.05 v -1.05 l -0.3,-0.65 h -0.35 m 6.9,0 q -0.8,0 -1.35,0.5 -0.5,0.3 -0.35,1.05 l 0.2,0.95 0.15,0.7 h 0.4 3.65 q 0.75,0 1.2,-0.45 0.65,-0.4 0.5,-1.05 l -0.35,-1.05 -0.15,-0.65 h -0.3 -3.6 m 10.6,0 q -0.75,0 -1.35,0.5 -0.45,0.3 -0.3,1.05 l 0.15,1 0.35,0.65 h 0.4 3.5 q 0.95,0 1.35,-0.45 0.65,-0.4 0.3,-1.05 l -0.3,-1.05 -0.15,-0.65 h -0.4 -3.55 m 8.25,-0.65 q 2.25,1.55 2.7,3.7 l 11.6,48.1 q 1.05,4.2 -6.7,4.2 H 5.4 Q 2.2,147.3 0.7,145.5 -0.35,143.8 0.15,142.45 l 12.3,-48.2 Q 12.9,92.1 15.3,90.6 17.45,89.1 20.05,89.1 H 129.1 q 2.55,0 4.9,1.5 l 1.5,0.85 M 126.1,76.8 24.6,77.1 V 9.65 l 101.5,-0.4 q 0.3,67.35 0,67.55 m -53.15,30.1 v 2.85 h 4.6 v -2.85 h -4.6 m 0.15,-6.55 -0.15,2.85 h 4.6 l 0.1,-2.85 H 73.1 m -4.9,0 H 63.65 L 63.5,103.2 H 68 l 0.2,-2.85 m -4.8,6.55 -0.15,2.7 h 4.4 L 68,106.9 h -4.6 m 3.95,15 v -2.85 H 62.6 l -0.15,2.85 h 4.9 m 0.15,-6.05 0.15,-2.9 H 63.1 l -0.3,2.9 h 4.7 m 9.9,6.05 v -2.85 h -4.85 l -0.2,2.85 h 5.05 m -4.7,-8.95 v 2.9 h 4.7 l 0.15,-2.9 H 72.7 m -14,-9.75 0.25,-2.85 h -4.4 l -0.3,2.85 h 4.45 m -4.7,3.7 -0.35,2.7 h 4.75 l 0.15,-2.7 H 54 m -4.15,-6.55 h -4.4 l -0.5,2.85 h 4.55 l 0.35,-2.85 m -5.2,6.55 -0.25,2.7 h 4.55 l 0.35,-2.7 h -4.65 m 3.05,14.85 0.3,-2.7 h -4.7 l -0.35,2.7 h 4.75 m -3.6,-8.8 -0.5,2.75 h 4.7 l 0.35,-2.75 H 44.1 m 13.35,8.8 0.3,-2.7 h -4.7 l -0.35,2.7 h 4.75 M 53.2,115.7 h 4.7 l 0.35,-2.75 H 53.5 l -0.3,2.75 M 52.15,128 h 4.95 l 0.35,-2.9 H 52.4 l -0.25,2.9 m 6.55,3.8 q -0.8,0.35 -0.95,1.05 l -0.9,10.4 q -0.3,1.35 1.85,2.25 l 31.75,0.15 q 2.45,0 2.45,-1.55 l -0.8,-11.95 -0.3,-0.65 h -0.4 l -31.15,-0.3 q -1,0 -1.55,0.6 m -16.45,-4 h 5.05 l 0.3,-2.7 h -4.85 l -0.5,2.7 m 19.9,-2.7 V 128 H 67 l 0.2,-2.9 h -5.05 m 15.25,0.15 -5.05,-0.15 v 3.05 h 5.05 v -2.9 m -45.05,-24.9 h -4.4 l -0.5,2.7 h 4.35 l 0.55,-2.7 m 3.5,2.7 h 4.25 l 0.45,-2.7 h -4.2 l -0.5,2.7 m -0.5,3.85 -0.4,2.7 h 4.6 l 0.2,-2.7 h -4.4 m -3.9,-0.15 h -4.4 l -0.65,2.85 h 4.4 l 0.65,-2.85 m -1.35,8.95 0.4,-2.9 h -4.55 l -0.55,2.9 h 4.7 m -5.2,3.15 -0.45,2.9 h 4.7 l 0.45,-2.7 -4.7,-0.2 m 13.5,0.2 h -4.7 l -0.4,2.7 H 38 l 0.4,-2.7 m -3.9,-6.1 -0.3,2.75 h 4.55 l 0.3,-2.75 H 34.5 m -2,14.85 h 4.7 l 0.5,-2.7 h -4.9 l -0.3,2.7 m -4.25,0 0.5,-2.7 -4.7,-0.15 -0.65,2.85 h 4.85 M 5,153.7 v -1.65 q 0,-1.2 2.25,-1.2 H 144 q 2.45,0 2.45,1.2 v 1.65 q 0,1.2 -2.45,1.2 H 7.25 Q 5,154.9 5,153.7 m 120.1,-53.2 h -4.7 l 0.3,2.9 h 4.75 l -0.35,-2.9 m 0.65,6.55 h -4.7 l 0.45,2.7 h 4.75 l -0.5,-2.7 m -3.05,15 5.05,0.2 -0.5,-2.9 h -4.85 l 0.3,2.7 m 4.25,-6.05 -0.3,-2.7 -5.05,-0.2 0.5,2.9 h 4.85 m 1.35,12.3 -0.3,-2.85 h -4.95 l 0.25,2.85 h 5 m -12.75,-27.8 h -4.6 l 0.35,2.9 h 4.55 l -0.3,-2.9 m -3.8,9.25 h 4.75 l -0.35,-2.7 h -4.7 l 0.3,2.7 M 101.7,103.4 h 4.55 l -0.15,-2.9 h -4.55 l 0.15,2.9 m 0.3,6.35 h 4.75 l -0.15,-2.85 h -4.75 l 0.15,2.85 m 5.45,12.3 -0.05,-2.85 h -4.9 l 0.15,2.85 h 4.8 m -0.25,-6.05 -0.3,-2.9 h -4.7 l 0.15,2.9 h 4.85 m 10.5,6.05 -0.35,-2.7 h -5 l 0.3,2.7 h 5.05 m -0.65,-6.05 -0.25,-2.9 h -4.85 l 0.2,2.9 h 4.9 m -20.2,-9.1 h -4.6 v 2.85 H 97 l -0.15,-2.85 m -0.2,-6.4 h -4.7 l 0.15,2.9 h 4.55 v -2.9 m -9.55,0 -4.4,-0.15 v 3.05 h 4.4 v -2.9 m -4.6,6.4 v 2.85 h 4.75 L 87.1,106.9 h -4.6 m 4.75,12.3 H 82.5 v 2.7 l 4.9,0.15 -0.15,-2.85 m -4.75,-6.25 v 2.9 h 4.75 v -2.9 H 82.5 m 14.95,6.25 h -5 l 0.15,2.85 h 4.85 v -2.85 m -5.2,-6.25 0.2,2.9 4.7,0.15 v -2.9 l -4.9,-0.15 m 5.4,12.5 -5.05,-0.2 0.15,2.9 h 5.05 l -0.15,-2.7 m -10.25,-0.2 h -4.9 v 2.9 h 5.05 l -0.15,-2.9 m 20.55,2.9 -0.15,-2.7 h -5.05 l 0.15,2.7 h 5.05 m 10.2,0.15 -0.3,-2.85 h -5.05 l 0.35,2.7 5,0.15"
   id="path5369"
   inkscape:connector-curvature="0" />
</g>
<g
   id="PathID_202"
   transform="matrix(0.395777, 0, 0, 0.395777, 294.95, 381.8)"
   opacity="1">
</g>
<g
   id="PathID_203"
   transform="matrix(0.115948,0,0,0.115948,461.1,218.6)"
   style="opacity:1;fill:#ffffff">
<path
   style="fill:#ffffff;fill-opacity:1"
   d="m 176.2,91.65 q 0,5.95 -4.05,9.95 -4,4.05 -9.95,4.05 h -9.3 q -2.2,8.4 -6.55,15.85 l 6.55,6.55 q 4.35,4.35 4.35,10.25 0,5.9 -4.35,9.95 l -5,4.95 q -4,4.05 -9.95,4.05 -5.55,0 -9.9,-4.05 l -6.85,-7.15 q -6.85,4.05 -15.55,6.55 v 9.65 q 0,5.9 -4.05,9.95 -4.05,4 -9.95,4 H 84.5 q -5.9,0 -9.95,-4 -4.05,-4.05 -4.05,-9.95 V 152.6 Q 62.75,150.4 55,146.05 l -6.85,7.15 q -4.05,4.05 -9.95,4.05 -5.6,0 -9.95,-4.05 l -5,-4.95 q -4,-4.05 -4,-9.95 0,-5.9 4,-10.25 l 6.85,-6.85 q -4.05,-6.85 -6.5,-15.55 h -9.65 q -5.9,0 -9.95,-4.05 -4.05,-4 -4.05,-9.95 V 84.5 q 0,-5.9 4.05,-9.9 4.05,-4.05 9.95,-4.05 H 23.6 Q 26.05,61.85 30.1,55 l -6.85,-6.85 q -4,-4.05 -4,-9.95 0,-5.6 4,-9.95 l 5,-4.95 q 4.35,-4.05 9.95,-4.05 5.9,0 9.95,4.05 L 55,30.15 q 8.05,-5 15.5,-6.55 V 13.95 Q 70.5,8.05 74.55,4 78.6,0 84.5,0 h 7.15 q 5.9,0 9.95,4 4.05,4.05 4.05,9.95 v 9.65 q 7.15,1.55 15.85,6.55 l 6.55,-6.85 q 4.35,-4.05 9.9,-4.05 5.95,0 9.95,4.05 l 5,4.95 q 4.35,4.35 4.35,9.95 0,5.9 -4.35,9.95 L 146.35,55 q 4.05,6.85 6.55,15.55 h 9.3 q 5.95,0 9.95,4.05 4.05,4 4.05,9.9 v 7.15 m -87.95,0 q -3.75,0 -3.75,-3.4 0,-3.4 3.75,-3.4 3.4,0 3.4,3.4 0,3.4 -3.4,3.4 m 12.1,-15.85 q -5.25,-5.25 -12.4,-5.25 -7.5,0 -12.45,5.25 -5.3,5 -5.3,12.45 0,7.15 5.3,12.45 4.95,5.25 12.45,5.25 7.15,0 12.4,-5.25 5.3,-5.3 5.3,-12.45 0,-7.45 -5.3,-12.45 M 115.6,60.9 q 11.5,11.2 11.5,27.35 0,16.15 -11.5,27.35 -11.2,11.5 -27.35,11.5 Q 72.1,127.1 60.9,115.6 49.4,104.4 49.4,88.25 49.4,72.1 60.9,60.9 72.1,49.4 88.25,49.4 q 16.15,0 27.35,11.5 m 4.95,-5.3 Q 107.2,42.25 87.95,42.25 q -19,0 -32.35,13.35 -13.35,13.7 -13.35,32.65 0,18.95 13.35,32.35 13.35,13.35 32.35,13.35 18.95,0 32.6,-13.35 13.4,-13.4 13.4,-32.35 0,-18.95 -13.4,-32.65"
   id="path5373"
   inkscape:connector-curvature="0" />
</g>
<g
   id="PathID_204"
   transform="matrix(0.115948, 0, 0, 0.115948, 461.1, 218.6)"
   opacity="1">
</g>
<g
   id="PathID_205"
   transform="matrix(0.115948,0,0,0.115948,349.4,141.35)"
   style="opacity:1;fill:#ffffff">
<path
   style="fill:#ffffff;fill-opacity:1"
   d="m 176.2,91.65 q 0,5.95 -4.05,9.95 -4,4.05 -9.95,4.05 h -9.3 q -2.2,8.4 -6.55,15.85 l 6.55,6.55 q 4.35,4.35 4.35,10.25 0,5.9 -4.35,9.95 l -5,4.95 q -4,4.05 -9.95,4.05 -5.55,0 -9.9,-4.05 l -6.85,-7.15 q -6.85,4.05 -15.55,6.55 v 9.65 q 0,5.9 -4.05,9.95 -4.05,4 -9.95,4 H 84.5 q -5.9,0 -9.95,-4 -4.05,-4.05 -4.05,-9.95 V 152.6 Q 62.75,150.4 55,146.05 l -6.85,7.15 q -4.05,4.05 -9.95,4.05 -5.6,0 -9.95,-4.05 l -5,-4.95 q -4,-4.05 -4,-9.95 0,-5.9 4,-10.25 l 6.85,-6.85 q -4.05,-6.85 -6.5,-15.55 h -9.65 q -5.9,0 -9.95,-4.05 -4.05,-4 -4.05,-9.95 V 84.5 q 0,-5.9 4.05,-9.9 4.05,-4.05 9.95,-4.05 H 23.6 Q 26.05,61.85 30.1,55 l -6.85,-6.85 q -4,-4.05 -4,-9.95 0,-5.6 4,-9.95 l 5,-4.95 q 4.35,-4.05 9.95,-4.05 5.9,0 9.95,4.05 L 55,30.15 q 8.05,-5 15.5,-6.55 V 13.95 Q 70.5,8.05 74.55,4 78.6,0 84.5,0 h 7.15 q 5.9,0 9.95,4 4.05,4.05 4.05,9.95 v 9.65 q 7.15,1.55 15.85,6.55 l 6.55,-6.85 q 4.35,-4.05 9.9,-4.05 5.95,0 9.95,4.05 l 5,4.95 q 4.35,4.35 4.35,9.95 0,5.9 -4.35,9.95 L 146.35,55 q 4.05,6.85 6.55,15.55 h 9.3 q 5.95,0 9.95,4.05 4.05,4 4.05,9.9 v 7.15 m -87.95,0 q -3.75,0 -3.75,-3.4 0,-3.4 3.75,-3.4 3.4,0 3.4,3.4 0,3.4 -3.4,3.4 m 12.1,-15.85 q -5.25,-5.25 -12.4,-5.25 -7.5,0 -12.45,5.25 -5.3,5 -5.3,12.45 0,7.15 5.3,12.45 4.95,5.25 12.45,5.25 7.15,0 12.4,-5.25 5.3,-5.3 5.3,-12.45 0,-7.45 -5.3,-12.45 M 115.6,60.9 q 11.5,11.2 11.5,27.35 0,16.15 -11.5,27.35 -11.2,11.5 -27.35,11.5 Q 72.1,127.1 60.9,115.6 49.4,104.4 49.4,88.25 49.4,72.1 60.9,60.9 72.1,49.4 88.25,49.4 q 16.15,0 27.35,11.5 m 4.95,-5.3 Q 107.2,42.25 87.95,42.25 q -19,0 -32.35,13.35 -13.35,13.7 -13.35,32.65 0,18.95 13.35,32.35 13.35,13.35 32.35,13.35 18.95,0 32.6,-13.35 13.4,-13.4 13.4,-32.35 0,-18.95 -13.4,-32.65"
   id="path5377"
   inkscape:connector-curvature="0" />
</g>
<g
   id="PathID_206"
   transform="matrix(0.115948, 0, 0, 0.115948, 349.4, 141.35)"
   opacity="1">
</g>
<g
   id="PathID_207"
   transform="matrix(0.115948,0,0,0.115948,175.6,204.15)"
   style="opacity:1;fill:#ffffff">
<path
   style="fill:#ffffff;fill-opacity:1"
   d="m 176.2,91.65 q 0,5.95 -4.05,9.95 -4,4.05 -9.95,4.05 h -9.3 q -2.2,8.4 -6.55,15.85 l 6.55,6.55 q 4.35,4.35 4.35,10.25 0,5.9 -4.35,9.95 l -5,4.95 q -4,4.05 -9.95,4.05 -5.55,0 -9.9,-4.05 l -6.85,-7.15 q -6.85,4.05 -15.55,6.55 v 9.65 q 0,5.9 -4.05,9.95 -4.05,4 -9.95,4 H 84.5 q -5.9,0 -9.95,-4 -4.05,-4.05 -4.05,-9.95 V 152.6 Q 62.75,150.4 55,146.05 l -6.85,7.15 q -4.05,4.05 -9.95,4.05 -5.6,0 -9.95,-4.05 l -5,-4.95 q -4,-4.05 -4,-9.95 0,-5.9 4,-10.25 l 6.85,-6.85 q -4.05,-6.85 -6.5,-15.55 h -9.65 q -5.9,0 -9.95,-4.05 -4.05,-4 -4.05,-9.95 V 84.5 q 0,-5.9 4.05,-9.9 4.05,-4.05 9.95,-4.05 H 23.6 Q 26.05,61.85 30.1,55 l -6.85,-6.85 q -4,-4.05 -4,-9.95 0,-5.6 4,-9.95 l 5,-4.95 q 4.35,-4.05 9.95,-4.05 5.9,0 9.95,4.05 L 55,30.15 q 8.05,-5 15.5,-6.55 V 13.95 Q 70.5,8.05 74.55,4 78.6,0 84.5,0 h 7.15 q 5.9,0 9.95,4 4.05,4.05 4.05,9.95 v 9.65 q 7.15,1.55 15.85,6.55 l 6.55,-6.85 q 4.35,-4.05 9.9,-4.05 5.95,0 9.95,4.05 l 5,4.95 q 4.35,4.35 4.35,9.95 0,5.9 -4.35,9.95 L 146.35,55 q 4.05,6.85 6.55,15.55 h 9.3 q 5.95,0 9.95,4.05 4.05,4 4.05,9.9 v 7.15 m -87.95,0 q -3.75,0 -3.75,-3.4 0,-3.4 3.75,-3.4 3.4,0 3.4,3.4 0,3.4 -3.4,3.4 m 12.1,-15.85 q -5.25,-5.25 -12.4,-5.25 -7.5,0 -12.45,5.25 -5.3,5 -5.3,12.45 0,7.15 5.3,12.45 4.95,5.25 12.45,5.25 7.15,0 12.4,-5.25 5.3,-5.3 5.3,-12.45 0,-7.45 -5.3,-12.45 M 115.6,60.9 q 11.5,11.2 11.5,27.35 0,16.15 -11.5,27.35 -11.2,11.5 -27.35,11.5 Q 72.1,127.1 60.9,115.6 49.4,104.4 49.4,88.25 49.4,72.1 60.9,60.9 72.1,49.4 88.25,49.4 q 16.15,0 27.35,11.5 m 4.95,-5.3 Q 107.2,42.25 87.95,42.25 q -19,0 -32.35,13.35 -13.35,13.7 -13.35,32.65 0,18.95 13.35,32.35 13.35,13.35 32.35,13.35 18.95,0 32.6,-13.35 13.4,-13.4 13.4,-32.35 0,-18.95 -13.4,-32.65"
   id="path5381"
   inkscape:connector-curvature="0" />
</g>
<g
   id="PathID_208"
   transform="matrix(0.115948, 0, 0, 0.115948, 175.6, 204.15)"
   opacity="1">
</g>
</svg>